<svg width="16" height="16" viewBox="0 0 16 16" fill="none" xmlns="http://www.w3.org/2000/svg">
<path d="M2.79462 14.5H13.2054C13.9417 14.5 14.4255 13.7311 14.1069 13.0673L11.6272 7.90124L11.1764 8.1176L11.6272 7.90123C11.4218 7.47324 10.9437 7.24868 10.4832 7.36382L8 7.98461L5.51685 7.36382C5.05628 7.24868 4.57823 7.47324 4.37279 7.90124L1.89309 13.0673C1.57445 13.7311 2.05827 14.5 2.79462 14.5Z" fill="#BCC8CD" stroke="#1D2528"/>
<path d="M4.54924 7.53363L4.28393 8.08637L4.87873 8.23507L7.75746 8.95475C7.9167 8.99456 8.0833 8.99456 8.24254 8.95475L11.1213 8.23507L11.7161 8.08637L11.4508 7.53363L8.90152 2.22272C8.53847 1.46636 7.46153 1.46636 7.09848 2.22272L4.54924 7.53363Z" fill="#EFF5FF" stroke="#1D2528"/>
<path d="M7.09848 2.22272L4.81455 6.9809C4.54057 7.5517 4.8593 8.23021 5.47354 8.38377L7.75746 8.95475C7.9167 8.99456 8.0833 8.99456 8.24254 8.95475L10.5265 8.38377C11.1407 8.23021 11.4594 7.55169 11.1854 6.9809L8.90152 2.22272C8.53847 1.46636 7.46153 1.46636 7.09848 2.22272Z" fill="#EFF4F7" stroke="#1D2528"/>
</svg>
