<svg width="1200" height="600" viewBox="0 0 1200 600" fill="none" xmlns="http://www.w3.org/2000/svg">
<rect width="1200" height="600" fill="white"/>
<mask id="path-1-inside-1_6_8" fill="white">
<path d="M0 0H1200V48H0V0Z"/>
</mask>
<path d="M0 0H1200V48H0V0Z" fill="#D8DEE0"/>
<path d="M1200 47H0V49H1200V47Z" fill="#BCC8CD" mask="url(#path-1-inside-1_6_8)"/>
<path d="M18.7946 30.5H29.2054C29.9417 30.5 30.4255 29.7311 30.1069 29.0673L27.6272 23.9012L27.1764 24.1176L27.6272 23.9012C27.4218 23.4732 26.9437 23.2487 26.4832 23.3638L24 23.9846L21.5168 23.3638C21.0563 23.2487 20.5782 23.4732 20.3728 23.9012L17.8931 29.0673C17.5745 29.7311 18.0583 30.5 18.7946 30.5Z" fill="#BCC8CD" stroke="#1D2528"/>
<path d="M20.5492 23.5336L20.2839 24.0864L20.8787 24.2351L23.7575 24.9548C23.9167 24.9946 24.0833 24.9946 24.2425 24.9548L27.1213 24.2351L27.7161 24.0864L27.4508 23.5336L24.9015 18.2227C24.5385 17.4664 23.4615 17.4664 23.0985 18.2227L20.5492 23.5336Z" fill="#EFF5FF" stroke="#1D2528"/>
<path d="M23.0985 18.2227L20.8146 22.9809C20.5406 23.5517 20.8593 24.2302 21.4735 24.3838L23.7575 24.9548C23.9167 24.9946 24.0833 24.9946 24.2425 24.9548L26.5265 24.3838C27.1407 24.2302 27.4594 23.5517 27.1854 22.9809L24.9015 18.2227C24.5385 17.4664 23.4615 17.4664 23.0985 18.2227Z" fill="#EFF4F7" stroke="#1D2528"/>
<path d="M49.3733 30V19.2H53.7867C54.88 19.2 55.7422 19.5022 56.3733 20.1067C57.0133 20.7111 57.3333 21.5333 57.3333 22.5733C57.3333 23.6044 57.0133 24.4267 56.3733 25.04C55.7333 25.6444 54.8711 25.9467 53.7867 25.9467H51.1733V30H49.3733ZM51.1733 24.36H53.68C54.2489 24.36 54.6978 24.2 55.0267 23.88C55.3644 23.56 55.5333 23.1244 55.5333 22.5733C55.5333 22.0222 55.3644 21.5867 55.0267 21.2667C54.6978 20.9467 54.2489 20.7867 53.68 20.7867H51.1733V24.36ZM61.9598 30.16C61.2131 30.16 60.5509 29.9911 59.9731 29.6533C59.4042 29.3067 58.9553 28.8222 58.6265 28.2C58.2976 27.5689 58.1331 26.8267 58.1331 25.9733C58.1331 25.1289 58.2931 24.4 58.6131 23.7867C58.9331 23.1644 59.3731 22.6844 59.9331 22.3467C60.502 22.0089 61.1509 21.84 61.8798 21.84C62.5553 21.84 63.1598 21.9956 63.6931 22.3067C64.2353 22.6089 64.662 23.0489 64.9731 23.6267C65.2842 24.2044 65.4398 24.8978 65.4398 25.7067V26.4H59.8398C59.902 27.1111 60.1198 27.6711 60.4931 28.08C60.8753 28.48 61.3598 28.68 61.9465 28.68C62.3731 28.68 62.7331 28.5778 63.0265 28.3733C63.3287 28.16 63.5287 27.8711 63.6265 27.5067H65.4265C65.3198 28.0578 65.102 28.5333 64.7731 28.9333C64.4442 29.3244 64.0398 29.6267 63.5598 29.84C63.0798 30.0533 62.5465 30.16 61.9598 30.16ZM59.8931 25.1333H63.7331C63.662 24.5467 63.4576 24.0978 63.1198 23.7867C62.7909 23.4667 62.3776 23.3067 61.8798 23.3067C61.3731 23.3067 60.942 23.4667 60.5865 23.7867C60.2398 24.1067 60.0087 24.5556 59.8931 25.1333ZM70.6583 30.16C69.9206 30.16 69.2583 29.9911 68.6717 29.6533C68.0939 29.3067 67.6361 28.8222 67.2983 28.2C66.9694 27.5778 66.805 26.8444 66.805 26C66.805 25.1467 66.9694 24.4089 67.2983 23.7867C67.6361 23.1644 68.0939 22.6844 68.6717 22.3467C69.2583 22.0089 69.9206 21.84 70.6583 21.84C71.4139 21.84 72.0806 22.0089 72.6583 22.3467C73.2361 22.6844 73.6894 23.1644 74.0183 23.7867C74.3472 24.4089 74.5117 25.1467 74.5117 26C74.5117 26.8444 74.3472 27.5822 74.0183 28.2133C73.6894 28.8356 73.2317 29.3156 72.645 29.6533C72.0672 29.9911 71.405 30.16 70.6583 30.16ZM70.6583 28.5867C71.2983 28.5867 71.805 28.3511 72.1783 27.88C72.5606 27.4089 72.7517 26.7822 72.7517 26C72.7517 25.2089 72.5606 24.5822 72.1783 24.12C71.805 23.6489 71.2983 23.4133 70.6583 23.4133C70.0361 23.4133 69.5294 23.6489 69.1383 24.12C68.7561 24.5822 68.565 25.2089 68.565 26C68.565 26.7822 68.7561 27.4089 69.1383 27.88C69.5294 28.3511 70.0361 28.5867 70.6583 28.5867ZM76.3075 33.2V22H78.0275V23.24H78.0808C78.5431 22.3067 79.3342 21.84 80.4542 21.84C81.1208 21.84 81.7031 22.0133 82.2008 22.36C82.6986 22.7067 83.0853 23.1911 83.3608 23.8133C83.6364 24.4356 83.7742 25.1644 83.7742 26C83.7742 26.8267 83.6364 27.5556 83.3608 28.1867C83.0853 28.8089 82.6986 29.2933 82.2008 29.64C81.7031 29.9867 81.1208 30.16 80.4542 30.16C79.3431 30.16 78.5653 29.7067 78.1208 28.8H78.0675V33.2H76.3075ZM79.9742 28.6C80.6053 28.6 81.1031 28.3644 81.4675 27.8933C81.8319 27.4222 82.0142 26.7911 82.0142 26C82.0142 25.2089 81.8319 24.5778 81.4675 24.1067C81.1031 23.6356 80.6053 23.4 79.9742 23.4C79.3786 23.4 78.9119 23.5956 78.5742 23.9867C78.2364 24.3689 78.0675 24.88 78.0675 25.52V26.48C78.0675 27.12 78.2364 27.6311 78.5742 28.0133C78.9119 28.3956 79.3786 28.5911 79.9742 28.6ZM85.5998 30V18.8H87.3598V30H85.5998ZM93.0067 30.16C92.26 30.16 91.5978 29.9911 91.02 29.6533C90.4511 29.3067 90.0022 28.8222 89.6733 28.2C89.3444 27.5689 89.18 26.8267 89.18 25.9733C89.18 25.1289 89.34 24.4 89.66 23.7867C89.98 23.1644 90.42 22.6844 90.98 22.3467C91.5489 22.0089 92.1978 21.84 92.9267 21.84C93.6022 21.84 94.2067 21.9956 94.74 22.3067C95.2822 22.6089 95.7089 23.0489 96.02 23.6267C96.3311 24.2044 96.4867 24.8978 96.4867 25.7067V26.4H90.8867C90.9489 27.1111 91.1667 27.6711 91.54 28.08C91.9222 28.48 92.4067 28.68 92.9933 28.68C93.42 28.68 93.78 28.5778 94.0733 28.3733C94.3756 28.16 94.5756 27.8711 94.6733 27.5067H96.4733C96.3667 28.0578 96.1489 28.5333 95.82 28.9333C95.4911 29.3244 95.0867 29.6267 94.6067 29.84C94.1267 30.0533 93.5933 30.16 93.0067 30.16ZM90.94 25.1333H94.78C94.7089 24.5467 94.5044 24.0978 94.1667 23.7867C93.8378 23.4667 93.4244 23.3067 92.9267 23.3067C92.42 23.3067 91.9889 23.4667 91.6333 23.7867C91.2867 24.1067 91.0556 24.5556 90.94 25.1333Z" fill="#1D2528"/>
<rect x="114" y="14" width="132" height="20" rx="10" fill="#1D2528"/>
<circle cx="124" cy="24" r="2" fill="#00FF00"/>
<path d="M138.33 28.64C137.59 28.64 136.937 28.4667 136.37 28.12C135.81 27.7667 135.373 27.2767 135.06 26.65C134.747 26.0233 134.59 25.2933 134.59 24.46C134.59 23.6333 134.747 22.9067 135.06 22.28C135.373 21.6467 135.81 21.1567 136.37 20.81C136.937 20.4567 137.59 20.28 138.33 20.28C138.93 20.28 139.467 20.3933 139.94 20.62C140.413 20.8467 140.803 21.17 141.11 21.59C141.417 22.01 141.607 22.5 141.68 23.06H140.14C140.073 22.6333 139.877 22.2867 139.55 22.02C139.223 21.7533 138.817 21.62 138.33 21.62C137.877 21.62 137.48 21.74 137.14 21.98C136.8 22.2133 136.537 22.5433 136.35 22.97C136.17 23.39 136.08 23.8867 136.08 24.46C136.08 25.0333 136.17 25.5333 136.35 25.96C136.537 26.3867 136.8 26.7167 137.14 26.95C137.48 27.1833 137.877 27.3 138.33 27.3C138.817 27.3 139.223 27.17 139.55 26.91C139.877 26.6433 140.073 26.2933 140.14 25.86H141.68C141.607 26.42 141.417 26.91 141.11 27.33C140.803 27.75 140.413 28.0733 139.94 28.3C139.467 28.5267 138.93 28.64 138.33 28.64ZM146.307 28.62C145.587 28.62 144.94 28.45 144.367 28.11C143.8 27.7633 143.354 27.28 143.027 26.66C142.707 26.0333 142.547 25.2967 142.547 24.45C142.547 23.5967 142.707 22.86 143.027 22.24C143.354 21.6133 143.8 21.13 144.367 20.79C144.94 20.45 145.587 20.28 146.307 20.28C147.034 20.28 147.68 20.45 148.247 20.79C148.82 21.1233 149.267 21.6033 149.587 22.23C149.907 22.85 150.067 23.59 150.067 24.45C150.067 25.2967 149.904 26.0333 149.577 26.66C149.25 27.2867 148.804 27.77 148.237 28.11C147.677 28.45 147.034 28.62 146.307 28.62ZM146.307 27.29C146.767 27.29 147.167 27.1733 147.507 26.94C147.847 26.7 148.11 26.3667 148.297 25.94C148.484 25.5133 148.577 25.0167 148.577 24.45C148.577 23.8767 148.484 23.3767 148.297 22.95C148.11 22.5233 147.847 22.1933 147.507 21.96C147.167 21.7267 146.767 21.61 146.307 21.61C145.847 21.61 145.447 21.7267 145.107 21.96C144.767 22.1933 144.504 22.5233 144.317 22.95C144.13 23.3767 144.037 23.8767 144.037 24.45C144.037 25.0167 144.13 25.5133 144.317 25.94C144.504 26.3667 144.767 26.7 145.107 26.94C145.447 27.1733 145.847 27.29 146.307 27.29ZM158.522 28.5H156.922L153.072 22.74H153.032V28.5H151.642V20.4H153.182L157.092 26.26H157.132V20.4H158.522V28.5ZM167.382 28.5H165.782L161.932 22.74H161.892V28.5H160.502V20.4H162.042L165.952 26.26H165.992V20.4H167.382V28.5ZM174.691 28.5H169.361V20.4H174.691V21.72H170.851V23.66H174.421V24.94H170.851V27.18H174.691V28.5ZM179.428 28.64C178.688 28.64 178.034 28.4667 177.468 28.12C176.908 27.7667 176.471 27.2767 176.158 26.65C175.844 26.0233 175.688 25.2933 175.688 24.46C175.688 23.6333 175.844 22.9067 176.158 22.28C176.471 21.6467 176.908 21.1567 177.468 20.81C178.034 20.4567 178.688 20.28 179.428 20.28C180.028 20.28 180.564 20.3933 181.038 20.62C181.511 20.8467 181.901 21.17 182.208 21.59C182.514 22.01 182.704 22.5 182.778 23.06H181.238C181.171 22.6333 180.974 22.2867 180.648 22.02C180.321 21.7533 179.914 21.62 179.428 21.62C178.974 21.62 178.578 21.74 178.238 21.98C177.898 22.2133 177.634 22.5433 177.448 22.97C177.268 23.39 177.178 23.8867 177.178 24.46C177.178 25.0333 177.268 25.5333 177.448 25.96C177.634 26.3867 177.898 26.7167 178.238 26.95C178.578 27.1833 178.974 27.3 179.428 27.3C179.914 27.3 180.321 27.17 180.648 26.91C180.974 26.6433 181.171 26.2933 181.238 25.86H182.778C182.704 26.42 182.514 26.91 182.208 27.33C181.901 27.75 181.511 28.0733 181.038 28.3C180.564 28.5267 180.028 28.64 179.428 28.64ZM186.94 28.5H185.46V21.72H182.99V20.4H189.41V21.72H186.94V28.5ZM195.972 28.5H190.642V20.4H195.972V21.72H192.132V23.66H195.702V24.94H192.132V27.18H195.972V28.5ZM197.568 28.5V20.4H200.318C201.131 20.4 201.835 20.5633 202.428 20.89C203.028 21.2167 203.491 21.6833 203.818 22.29C204.151 22.8967 204.318 23.6167 204.318 24.45C204.318 25.2767 204.151 25.9933 203.818 26.6C203.491 27.2067 203.028 27.6767 202.428 28.01C201.828 28.3367 201.125 28.5 200.318 28.5H197.568ZM199.058 27.2H200.318C200.858 27.2 201.315 27.0867 201.688 26.86C202.061 26.6267 202.345 26.3033 202.538 25.89C202.731 25.4767 202.828 24.9967 202.828 24.45C202.828 23.6233 202.611 22.96 202.178 22.46C201.751 21.9533 201.131 21.7 200.318 21.7H199.058V27.2ZM208.416 28.5V27.68L211.466 24.36C211.719 24.08 211.916 23.8433 212.056 23.65C212.203 23.4567 212.306 23.2767 212.366 23.11C212.426 22.9433 212.456 22.77 212.456 22.59C212.456 22.1833 212.326 21.8567 212.066 21.61C211.813 21.3633 211.476 21.24 211.056 21.24C210.603 21.24 210.236 21.3833 209.956 21.67C209.676 21.95 209.513 22.3433 209.466 22.85H208.416C208.449 22.33 208.579 21.88 208.806 21.5C209.033 21.1133 209.339 20.8133 209.726 20.6C210.113 20.3867 210.563 20.28 211.076 20.28C211.549 20.28 211.969 20.3767 212.336 20.57C212.709 20.7567 212.999 21.0233 213.206 21.37C213.419 21.71 213.526 22.1033 213.526 22.55C213.526 22.93 213.433 23.3 213.246 23.66C213.059 24.02 212.759 24.4167 212.346 24.85L209.856 27.49V27.53H213.666V28.5H208.416ZM217.644 28.62C216.757 28.62 216.084 28.2667 215.624 27.56C215.164 26.8533 214.934 25.8167 214.934 24.45C214.934 23.0833 215.164 22.0467 215.624 21.34C216.084 20.6333 216.757 20.28 217.644 20.28C218.53 20.28 219.204 20.6333 219.664 21.34C220.124 22.0467 220.354 23.0833 220.354 24.45C220.354 25.8167 220.124 26.8533 219.664 27.56C219.204 28.2667 218.53 28.62 217.644 28.62ZM217.644 27.66C218.19 27.66 218.597 27.3933 218.864 26.86C219.137 26.3267 219.274 25.5233 219.274 24.45C219.274 23.3767 219.137 22.5733 218.864 22.04C218.597 21.5067 218.19 21.24 217.644 21.24C217.097 21.24 216.687 21.5067 216.414 22.04C216.147 22.5733 216.014 23.3767 216.014 24.45C216.014 25.5233 216.147 26.3267 216.414 26.86C216.687 27.3933 217.097 27.66 217.644 27.66ZM221.851 28.5V22.5H222.911V23.47H222.951C223.105 23.1167 223.328 22.85 223.621 22.67C223.921 22.4833 224.271 22.39 224.671 22.39C225.078 22.39 225.438 22.49 225.751 22.69C226.071 22.8833 226.315 23.1633 226.481 23.53H226.511C226.711 23.1633 226.971 22.8833 227.291 22.69C227.611 22.49 227.981 22.39 228.401 22.39C228.828 22.39 229.205 22.49 229.531 22.69C229.858 22.8833 230.108 23.16 230.281 23.52C230.461 23.88 230.551 24.3033 230.551 24.79V28.5H229.471V24.95C229.471 24.45 229.351 24.0633 229.111 23.79C228.871 23.51 228.538 23.37 228.111 23.37C227.691 23.37 227.358 23.51 227.111 23.79C226.865 24.0633 226.741 24.45 226.741 24.95V28.5H225.661V24.95C225.661 24.45 225.538 24.0633 225.291 23.79C225.051 23.51 224.718 23.37 224.291 23.37C223.871 23.37 223.538 23.51 223.291 23.79C223.051 24.0633 222.931 24.45 222.931 24.95V28.5H221.851ZM234.388 28.62C233.668 28.62 233.081 28.4433 232.628 28.09C232.181 27.73 231.938 27.25 231.898 26.65H232.958C233.005 26.9967 233.155 27.2633 233.408 27.45C233.661 27.63 234.001 27.72 234.428 27.72C234.821 27.72 235.121 27.6433 235.328 27.49C235.535 27.3367 235.638 27.12 235.638 26.84C235.638 26.4 235.335 26.1167 234.728 25.99L233.738 25.77C232.658 25.5433 232.118 25.01 232.118 24.17C232.118 23.6367 232.318 23.2067 232.718 22.88C233.118 22.5467 233.641 22.38 234.288 22.38C234.928 22.38 235.455 22.55 235.868 22.89C236.288 23.2233 236.525 23.6767 236.578 24.25H235.538C235.471 23.9367 235.325 23.6967 235.098 23.53C234.878 23.3567 234.591 23.27 234.238 23.27C233.898 23.27 233.628 23.3433 233.428 23.49C233.228 23.6367 233.128 23.8367 233.128 24.09C233.128 24.29 233.198 24.4533 233.338 24.58C233.478 24.7 233.701 24.7933 234.008 24.86L235.008 25.07C235.555 25.19 235.961 25.39 236.228 25.67C236.501 25.9433 236.638 26.3033 236.638 26.75C236.638 27.3233 236.438 27.78 236.038 28.12C235.638 28.4533 235.088 28.62 234.388 28.62Z" fill="white"/>
<rect x="479.5" y="13.5" width="56" height="21" rx="4.5" fill="#F5FAFD"/>
<rect x="479.5" y="13.5" width="56" height="21" rx="4.5" stroke="#002831"/>
<path d="M492.85 30.44C492.483 30.44 492.2 30.3433 492 30.15C491.8 29.9633 491.7 29.6767 491.7 29.29V28.56C491.093 28.4667 490.557 28.24 490.09 27.88C489.623 27.5133 489.257 27.04 488.99 26.46C488.73 25.88 488.6 25.21 488.6 24.45C488.6 23.5967 488.763 22.86 489.09 22.24C489.417 21.6133 489.86 21.13 490.42 20.79C490.987 20.45 491.63 20.28 492.35 20.28C493.077 20.28 493.72 20.45 494.28 20.79C494.847 21.1233 495.29 21.6033 495.61 22.23C495.937 22.85 496.1 23.59 496.1 24.45C496.1 25.21 495.967 25.8833 495.7 26.47C495.44 27.05 495.08 27.52 494.62 27.88C494.16 28.2333 493.627 28.46 493.02 28.56V29.29H495.05V30.44H492.85ZM492.35 27.42C492.837 27.42 493.257 27.2967 493.61 27.05C493.97 26.8033 494.247 26.4567 494.44 26.01C494.64 25.5633 494.74 25.0433 494.74 24.45C494.74 23.85 494.64 23.3267 494.44 22.88C494.247 22.4333 493.97 22.09 493.61 21.85C493.257 21.6033 492.837 21.48 492.35 21.48C491.87 21.48 491.45 21.6033 491.09 21.85C490.737 22.09 490.46 22.4333 490.26 22.88C490.06 23.3267 489.96 23.85 489.96 24.45C489.96 25.0433 490.06 25.5633 490.26 26.01C490.46 26.4567 490.737 26.8033 491.09 27.05C491.45 27.2967 491.87 27.42 492.35 27.42ZM500.827 28.62C500.187 28.62 499.627 28.5033 499.147 28.27C498.674 28.0367 498.304 27.6933 498.037 27.24C497.777 26.78 497.647 26.2167 497.647 25.55V20.4H499.017V25.41C499.017 26.0167 499.174 26.49 499.487 26.83C499.8 27.17 500.264 27.34 500.877 27.34C501.497 27.34 501.957 27.16 502.257 26.8C502.564 26.44 502.717 25.98 502.717 25.42V20.4H504.067V25.57C504.067 26.2033 503.937 26.75 503.677 27.21C503.417 27.6633 503.044 28.0133 502.557 28.26C502.077 28.5 501.5 28.62 500.827 28.62ZM511.282 28.5H506.022V20.4H511.282V21.6H507.372V23.71H511.032V24.89H507.372V27.3H511.282V28.5ZM512.913 28.5V20.4H516.503C517.003 20.4 517.443 20.4867 517.823 20.66C518.203 20.8333 518.499 21.0867 518.713 21.42C518.926 21.7467 519.033 22.1433 519.033 22.61C519.033 22.99 518.949 23.3333 518.783 23.64C518.616 23.94 518.346 24.1733 517.973 24.34V24.38C518.319 24.38 518.583 24.4733 518.763 24.66C518.943 24.84 519.033 25.1033 519.033 25.45V28.5H517.693V25.29H514.263V28.5H512.913ZM514.263 24.11H516.393C516.786 24.11 517.103 24 517.343 23.78C517.583 23.56 517.703 23.25 517.703 22.85C517.703 22.4433 517.583 22.1333 517.343 21.92C517.103 21.7 516.786 21.59 516.393 21.59H514.263V24.11ZM522.214 28.5V25.47L519.444 20.4H520.974L522.904 24.07H522.944L524.874 20.4H526.334L523.564 25.45V28.5H522.214Z" fill="#002831"/>
<path d="M562.15 28.5L559.12 20.4H560.35L562.84 27.3H562.88L565.35 20.4H566.54L563.51 28.5H562.15ZM567.764 28.5V20.4H568.864V28.5H567.764ZM573.709 28.62C573.082 28.62 572.532 28.5133 572.059 28.3C571.585 28.08 571.212 27.78 570.939 27.4C570.672 27.0133 570.522 26.5633 570.489 26.05H571.649C571.709 26.57 571.922 26.9667 572.289 27.24C572.662 27.5133 573.149 27.65 573.749 27.65C574.315 27.65 574.752 27.5333 575.059 27.3C575.365 27.06 575.519 26.7267 575.519 26.3C575.519 25.96 575.409 25.68 575.189 25.46C574.975 25.2333 574.639 25.0733 574.179 24.98L572.899 24.69C572.225 24.5433 571.712 24.29 571.359 23.93C571.005 23.57 570.829 23.1133 570.829 22.56C570.829 22.1133 570.939 21.72 571.159 21.38C571.385 21.0333 571.702 20.7633 572.109 20.57C572.522 20.3767 573.005 20.28 573.559 20.28C574.125 20.28 574.622 20.3833 575.049 20.59C575.475 20.79 575.815 21.0733 576.069 21.44C576.329 21.8 576.485 22.2267 576.539 22.72H575.379C575.292 22.2333 575.085 21.8667 574.759 21.62C574.432 21.3667 574.012 21.24 573.499 21.24C573.019 21.24 572.632 21.35 572.339 21.57C572.052 21.79 571.909 22.09 571.909 22.47C571.909 22.77 572.009 23.0267 572.209 23.24C572.415 23.4467 572.749 23.6 573.209 23.7L574.539 24C575.225 24.1533 575.739 24.4133 576.079 24.78C576.425 25.1467 576.599 25.6233 576.599 26.21C576.599 26.9433 576.342 27.53 575.829 27.97C575.322 28.4033 574.615 28.62 573.709 28.62ZM581.301 28.62C580.648 28.62 580.088 28.5 579.621 28.26C579.161 28.02 578.808 27.6767 578.561 27.23C578.314 26.7767 578.191 26.2333 578.191 25.6V20.4H579.321V25.54C579.321 26.1933 579.491 26.6967 579.831 27.05C580.171 27.4033 580.678 27.58 581.351 27.58C582.038 27.58 582.544 27.3933 582.871 27.02C583.198 26.64 583.361 26.15 583.361 25.55V20.4H584.471V25.62C584.471 26.22 584.351 26.7467 584.111 27.2C583.871 27.6467 583.514 27.9967 583.041 28.25C582.574 28.4967 581.994 28.62 581.301 28.62ZM585.31 28.5L588.46 20.4H589.69L592.81 28.5H591.66L590.77 26.08H587.34L586.43 28.5H585.31ZM587.7 25.1H590.42L589.09 21.5H589.05L587.7 25.1ZM593.957 28.5V20.4H595.067V27.52H599.027V28.5H593.957ZM600.424 28.5V20.4H601.524V28.5H600.424ZM606.369 28.62C605.742 28.62 605.192 28.5133 604.719 28.3C604.246 28.08 603.872 27.78 603.599 27.4C603.332 27.0133 603.182 26.5633 603.149 26.05H604.309C604.369 26.57 604.582 26.9667 604.949 27.24C605.322 27.5133 605.809 27.65 606.409 27.65C606.976 27.65 607.412 27.5333 607.719 27.3C608.026 27.06 608.179 26.7267 608.179 26.3C608.179 25.96 608.069 25.68 607.849 25.46C607.636 25.2333 607.299 25.0733 606.839 24.98L605.559 24.69C604.886 24.5433 604.372 24.29 604.019 23.93C603.666 23.57 603.489 23.1133 603.489 22.56C603.489 22.1133 603.599 21.72 603.819 21.38C604.046 21.0333 604.362 20.7633 604.769 20.57C605.182 20.3767 605.666 20.28 606.219 20.28C606.786 20.28 607.282 20.3833 607.709 20.59C608.136 20.79 608.476 21.0733 608.729 21.44C608.989 21.8 609.146 22.2267 609.199 22.72H608.039C607.952 22.2333 607.746 21.8667 607.419 21.62C607.092 21.3667 606.672 21.24 606.159 21.24C605.679 21.24 605.292 21.35 604.999 21.57C604.712 21.79 604.569 22.09 604.569 22.47C604.569 22.77 604.669 23.0267 604.869 23.24C605.076 23.4467 605.409 23.6 605.869 23.7L607.199 24C607.886 24.1533 608.399 24.4133 608.739 24.78C609.086 25.1467 609.259 25.6233 609.259 26.21C609.259 26.9433 609.002 27.53 608.489 27.97C607.982 28.4033 607.276 28.62 606.369 28.62ZM616.111 28.5H610.961V20.4H616.111V21.38H612.071V23.82H615.891V24.78H612.071V27.52H616.111V28.5Z" fill="#1D2528"/>
<path d="M649.06 28.5L652.21 20.4H653.44L656.56 28.5H655.41L654.52 26.08H651.09L650.18 28.5H649.06ZM651.45 25.1H654.17L652.84 21.5H652.8L651.45 25.1ZM660.508 28.62C659.855 28.62 659.295 28.5 658.828 28.26C658.368 28.02 658.015 27.6767 657.768 27.23C657.521 26.7767 657.398 26.2333 657.398 25.6V20.4H658.528V25.54C658.528 26.1933 658.698 26.6967 659.038 27.05C659.378 27.4033 659.885 27.58 660.558 27.58C661.245 27.58 661.751 27.3933 662.078 27.02C662.405 26.64 662.568 26.15 662.568 25.55V20.4H663.678V25.62C663.678 26.22 663.558 26.7467 663.318 27.2C663.078 27.6467 662.721 27.9967 662.248 28.25C661.781 28.4967 661.201 28.62 660.508 28.62ZM668.656 28.5H667.556V21.38H664.896V20.4H671.316V21.38H668.656V28.5ZM675.311 28.62C674.598 28.62 673.961 28.45 673.401 28.11C672.841 27.7633 672.401 27.28 672.081 26.66C671.761 26.0333 671.601 25.2967 671.601 24.45C671.601 23.5967 671.761 22.86 672.081 22.24C672.401 21.6133 672.841 21.13 673.401 20.79C673.961 20.45 674.598 20.28 675.311 20.28C676.031 20.28 676.671 20.45 677.231 20.79C677.791 21.1233 678.228 21.6033 678.541 22.23C678.861 22.85 679.021 23.59 679.021 24.45C679.021 25.2967 678.861 26.0333 678.541 26.66C678.221 27.2867 677.781 27.77 677.221 28.11C676.668 28.45 676.031 28.62 675.311 28.62ZM675.311 27.62C675.838 27.62 676.294 27.49 676.681 27.23C677.074 26.9633 677.374 26.5933 677.581 26.12C677.794 25.64 677.901 25.0833 677.901 24.45C677.901 23.81 677.794 23.2533 677.581 22.78C677.374 22.3 677.074 21.93 676.681 21.67C676.294 21.41 675.838 21.28 675.311 21.28C674.784 21.28 674.328 21.41 673.941 21.67C673.554 21.93 673.254 22.3 673.041 22.78C672.828 23.2533 672.721 23.81 672.721 24.45C672.721 25.0833 672.828 25.64 673.041 26.12C673.254 26.5933 673.554 26.9633 673.941 27.23C674.328 27.49 674.784 27.62 675.311 27.62ZM680.746 28.5V20.4H682.336L684.816 26.93H684.856L687.346 20.4H688.926V28.5H687.816V21.75H687.776L685.256 28.5H684.346L681.816 21.74H681.776V28.5H680.746ZM690.076 28.5L693.226 20.4H694.456L697.576 28.5H696.426L695.536 26.08H692.106L691.196 28.5H690.076ZM692.466 25.1H695.186L693.856 21.5H693.816L692.466 25.1ZM700.438 28.5H699.338V21.38H696.677V20.4H703.098V21.38H700.438V28.5ZM709.58 28.5H704.43V20.4H709.58V21.38H705.54V23.82H709.36V24.78H705.54V27.52H709.58V28.5Z" fill="#1D2528"/>
</svg>
