<svg width="1200" height="600" viewBox="0 0 1200 600" fill="none" xmlns="http://www.w3.org/2000/svg">
<g clip-path="url(#clip0_6_728)">
<mask id="path-1-inside-1_6_728" fill="white">
<path d="M192 48H1200V80H192V48Z"/>
</mask>
<path d="M192 48H1200V80H192V48Z" fill="#EBEBEC"/>
<path d="M1200 79H192V81H1200V79Z" fill="#BCC8CD" mask="url(#path-1-inside-1_6_728)"/>
<path d="M240.8 70.16C239.701 70.16 238.853 69.856 238.256 69.248C237.659 68.64 237.36 67.8133 237.36 66.768V58.32H238.96V66.768C238.96 67.3867 239.109 67.872 239.408 68.224C239.717 68.576 240.181 68.752 240.8 68.752C241.408 68.752 241.867 68.576 242.176 68.224C242.485 67.872 242.64 67.3867 242.64 66.768V58.32H244.24V66.768C244.24 67.824 243.941 68.656 243.344 69.264C242.757 69.8613 241.909 70.16 240.8 70.16ZM247.002 70V58.32H250.794C251.54 58.32 252.186 58.464 252.73 58.752C253.274 59.04 253.695 59.4453 253.994 59.968C254.292 60.48 254.442 61.0933 254.442 61.808C254.442 62.5013 254.292 63.1093 253.994 63.632C253.695 64.1547 253.274 64.56 252.73 64.848C252.186 65.136 251.54 65.28 250.794 65.28H248.586V70H247.002ZM248.586 63.872H250.794C251.402 63.872 251.887 63.6853 252.25 63.312C252.623 62.928 252.81 62.4267 252.81 61.808C252.81 61.168 252.623 60.6613 252.25 60.288C251.887 59.9147 251.402 59.728 250.794 59.728H248.586V63.872ZM256.596 70V58.32H260.388C261.134 58.32 261.78 58.464 262.324 58.752C262.868 59.04 263.289 59.4453 263.588 59.968C263.886 60.48 264.036 61.0933 264.036 61.808C264.036 62.5013 263.886 63.1093 263.588 63.632C263.289 64.1547 262.868 64.56 262.324 64.848C261.78 65.136 261.134 65.28 260.388 65.28H258.18V70H256.596ZM258.18 63.872H260.388C260.996 63.872 261.481 63.6853 261.844 63.312C262.217 62.928 262.404 62.4267 262.404 61.808C262.404 61.168 262.217 60.6613 261.844 60.288C261.481 59.9147 260.996 59.728 260.388 59.728H258.18V63.872ZM266.333 70V58.32H273.133V59.744H267.901V63.216H272.573V64.608H267.901V68.576H273.133V70H266.333ZM275.799 70V58.32H279.415C280.13 58.32 280.754 58.464 281.287 58.752C281.831 59.0293 282.247 59.424 282.535 59.936C282.834 60.4373 282.983 61.0293 282.983 61.712C282.983 62.4907 282.78 63.168 282.375 63.744C281.98 64.3093 281.452 64.7093 280.791 64.944L283.143 70H281.399L279.175 65.12H277.367V70H275.799ZM277.367 63.712H279.415C280.002 63.712 280.471 63.5307 280.823 63.168C281.175 62.8053 281.351 62.3253 281.351 61.728C281.351 61.12 281.175 60.6347 280.823 60.272C280.471 59.9093 280.002 59.728 279.415 59.728H277.367V63.712ZM288.897 70.16C288.182 70.16 287.558 70.0267 287.025 69.76C286.502 69.4827 286.097 69.0933 285.809 68.592C285.521 68.08 285.377 67.472 285.377 66.768V61.552C285.377 60.8373 285.521 60.2293 285.809 59.728C286.097 59.2267 286.502 58.8427 287.025 58.576C287.558 58.2987 288.182 58.16 288.897 58.16C289.611 58.16 290.23 58.2987 290.753 58.576C291.275 58.8533 291.681 59.2427 291.969 59.744C292.257 60.2453 292.401 60.848 292.401 61.552H290.801C290.801 60.912 290.635 60.4213 290.305 60.08C289.974 59.7387 289.505 59.568 288.897 59.568C288.289 59.568 287.814 59.7387 287.473 60.08C287.131 60.4213 286.961 60.912 286.961 61.552V66.768C286.961 67.408 287.131 67.8987 287.473 68.24C287.814 68.5813 288.289 68.752 288.897 68.752C289.505 68.752 289.974 68.5813 290.305 68.24C290.635 67.8987 290.801 67.408 290.801 66.768H292.401C292.401 67.4613 292.257 68.064 291.969 68.576C291.681 69.0773 291.275 69.4667 290.753 69.744C290.23 70.0213 289.611 70.16 288.897 70.16ZM294.299 70L297.323 58.32H299.419L302.427 70H300.811L300.075 66.96H296.651L295.914 70H294.299ZM296.971 65.648H299.755L298.907 62.16C298.757 61.52 298.635 60.976 298.539 60.528C298.443 60.08 298.384 59.776 298.363 59.616C298.341 59.776 298.283 60.08 298.187 60.528C298.091 60.976 297.968 61.5147 297.819 62.144L296.971 65.648ZM308.02 70.16C307.263 70.16 306.596 70.0267 306.02 69.76C305.455 69.4827 305.018 69.0933 304.708 68.592C304.399 68.08 304.244 67.472 304.244 66.768H305.828C305.828 67.3867 306.026 67.872 306.42 68.224C306.826 68.576 307.359 68.752 308.02 68.752C308.66 68.752 309.167 68.5707 309.54 68.208C309.924 67.8453 310.116 67.3707 310.116 66.784C310.116 66.336 309.994 65.9467 309.748 65.616C309.514 65.2747 309.167 65.0453 308.708 64.928L306.98 64.464C306.223 64.2507 305.62 63.8667 305.172 63.312C304.735 62.7467 304.516 62.08 304.516 61.312C304.516 60.6827 304.655 60.1333 304.932 59.664C305.22 59.184 305.62 58.816 306.132 58.56C306.644 58.2933 307.236 58.16 307.908 58.16C308.591 58.16 309.188 58.2933 309.7 58.56C310.212 58.816 310.612 59.1787 310.9 59.648C311.199 60.1173 311.348 60.6613 311.348 61.28H309.78C309.78 60.768 309.604 60.352 309.252 60.032C308.9 59.712 308.452 59.552 307.908 59.552C307.354 59.552 306.906 59.712 306.564 60.032C306.234 60.352 306.068 60.768 306.068 61.28C306.068 61.6853 306.18 62.032 306.404 62.32C306.628 62.608 306.943 62.8107 307.348 62.928L309.124 63.408C309.924 63.6213 310.548 64.032 310.996 64.64C311.444 65.2373 311.668 65.952 311.668 66.784C311.668 67.4667 311.519 68.064 311.22 68.576C310.922 69.0773 310.495 69.4667 309.94 69.744C309.396 70.0213 308.756 70.16 308.02 70.16ZM314.302 70V58.32H321.102V59.744H315.87V63.216H320.542V64.608H315.87V68.576H321.102V70H314.302Z" fill="#345742"/>
<path d="M330.104 71.92C328.557 71.568 327.357 70.848 326.504 69.76C325.65 68.672 325.224 67.312 325.224 65.68V62.8C325.224 61.168 325.65 59.808 326.504 58.72C327.357 57.632 328.557 56.912 330.104 56.56V58.096C329.432 58.256 328.845 58.5547 328.344 58.992C327.853 59.4293 327.474 59.9733 327.208 60.624C326.952 61.264 326.824 61.9893 326.824 62.8V65.68C326.824 66.48 326.952 67.2053 327.208 67.856C327.474 68.5067 327.853 69.0507 328.344 69.488C328.845 69.9147 329.432 70.208 330.104 70.368V71.92ZM391.34 71.92V70.368C392.023 70.208 392.609 69.9147 393.1 69.488C393.591 69.0507 393.964 68.5067 394.22 67.856C394.487 67.2053 394.62 66.48 394.62 65.68V62.8C394.62 61.9893 394.487 61.264 394.22 60.624C393.964 59.9733 393.591 59.4293 393.1 58.992C392.609 58.5547 392.023 58.256 391.34 58.096V56.56C392.887 56.912 394.087 57.632 394.94 58.72C395.793 59.808 396.22 61.168 396.22 62.8V65.68C396.22 67.312 395.793 68.672 394.94 69.76C394.087 70.848 392.887 71.568 391.34 71.92Z" fill="#222425"/>
<path d="M339.218 71.76C338.588 71.76 338.044 71.6533 337.586 71.44C337.127 71.2267 336.78 70.9173 336.546 70.512C336.311 70.1067 336.22 69.6213 336.274 69.056L336.514 66.48C336.567 65.9467 336.487 65.5627 336.274 65.328C336.071 65.0827 335.65 64.96 335.01 64.96H333.106V63.536H335.01C335.65 63.536 336.071 63.4133 336.274 63.168C336.487 62.9227 336.567 62.5333 336.514 62L336.274 59.408C336.22 58.8427 336.311 58.3627 336.546 57.968C336.78 57.5627 337.127 57.2533 337.586 57.04C338.044 56.8267 338.588 56.72 339.218 56.72H340.05V58.144H339.298C338.828 58.144 338.46 58.256 338.194 58.48C337.938 58.704 337.826 59.0293 337.858 59.456L338.098 62.048C338.14 62.496 338.071 62.8853 337.89 63.216C337.708 63.536 337.415 63.7867 337.01 63.968C336.604 64.1387 336.076 64.224 335.426 64.224V64.16C336.066 64.16 336.588 64.256 336.994 64.448C337.41 64.64 337.708 64.9067 337.89 65.248C338.071 65.5893 338.14 65.984 338.098 66.432L337.858 69.024C337.815 69.4613 337.927 69.7867 338.194 70C338.46 70.224 338.828 70.336 339.298 70.336H340.05V71.76H339.218ZM342.939 70V61.2H344.507V62.88H344.875L344.507 63.248C344.507 62.5547 344.715 62.016 345.131 61.632C345.558 61.2373 346.139 61.04 346.875 61.04C347.75 61.04 348.449 61.3173 348.971 61.872C349.494 62.4267 349.755 63.1733 349.755 64.112V70H348.171V64.368C348.171 63.728 348.011 63.2373 347.691 62.896C347.371 62.5547 346.934 62.384 346.379 62.384C345.803 62.384 345.35 62.5653 345.019 62.928C344.689 63.28 344.523 63.7813 344.523 64.432V70H342.939ZM355.109 70.16C354.202 70.16 353.482 69.9093 352.949 69.408C352.426 68.896 352.165 68.2293 352.165 67.408C352.165 66.8533 352.288 66.3733 352.533 65.968C352.789 65.5627 353.141 65.248 353.589 65.024C354.048 64.7893 354.57 64.672 355.157 64.672H357.733V64C357.733 63.456 357.584 63.0507 357.285 62.784C356.986 62.5173 356.538 62.384 355.941 62.384C355.408 62.384 354.976 62.4853 354.645 62.688C354.325 62.88 354.154 63.152 354.133 63.504H352.565C352.618 62.7893 352.944 62.2027 353.541 61.744C354.138 61.2747 354.938 61.04 355.941 61.04C357.029 61.04 357.861 61.3013 358.437 61.824C359.024 62.336 359.317 63.0507 359.317 63.968V70H357.749V68.384H357.493L357.749 68.064C357.749 68.4907 357.642 68.864 357.429 69.184C357.216 69.4933 356.912 69.7333 356.517 69.904C356.122 70.0747 355.653 70.16 355.109 70.16ZM355.525 68.832C356.197 68.832 356.73 68.672 357.125 68.352C357.53 68.0213 357.733 67.5733 357.733 67.008V65.84H355.301C354.842 65.84 354.469 65.9787 354.181 66.256C353.904 66.5227 353.765 66.88 353.765 67.328C353.765 67.7867 353.92 68.1547 354.229 68.432C354.538 68.6987 354.97 68.832 355.525 68.832ZM361.631 70V61.2H362.975V62.4H363.311L363.007 62.656C363.007 62.176 363.14 61.7867 363.407 61.488C363.673 61.1893 364.031 61.04 364.479 61.04C364.991 61.04 365.396 61.232 365.695 61.616C365.993 61.9893 366.143 62.48 366.143 63.088L365.727 62.336H366.367L366.015 62.656C366.025 62.1653 366.169 61.776 366.447 61.488C366.724 61.1893 367.092 61.04 367.551 61.04C368.116 61.04 368.564 61.2533 368.895 61.68C369.236 62.096 369.407 62.64 369.407 63.312V70H367.967V63.328C367.967 62.9973 367.881 62.736 367.711 62.544C367.551 62.3413 367.332 62.24 367.055 62.24C366.777 62.24 366.559 62.336 366.399 62.528C366.239 62.72 366.159 62.9867 366.159 63.328V70H364.879V63.328C364.879 62.9973 364.799 62.736 364.639 62.544C364.479 62.3413 364.26 62.24 363.983 62.24C363.705 62.24 363.481 62.336 363.311 62.528C363.151 62.72 363.071 62.9867 363.071 63.328V70H361.631ZM375.113 70.16C374.409 70.16 373.79 70.0213 373.257 69.744C372.734 69.456 372.323 69.0507 372.025 68.528C371.737 67.9947 371.593 67.3653 371.593 66.64V64.56C371.593 63.824 371.737 63.1947 372.025 62.672C372.323 62.1493 372.734 61.7493 373.257 61.472C373.79 61.184 374.409 61.04 375.113 61.04C375.817 61.04 376.43 61.1787 376.953 61.456C377.486 61.7333 377.897 62.128 378.185 62.64C378.483 63.1413 378.633 63.7387 378.633 64.432V66H373.145V66.768C373.145 67.408 373.321 67.9093 373.673 68.272C374.035 68.6347 374.515 68.816 375.113 68.816C375.614 68.816 376.03 68.72 376.361 68.528C376.702 68.336 376.905 68.0693 376.969 67.728H378.553C378.446 68.4747 378.078 69.0667 377.449 69.504C376.819 69.9413 376.041 70.16 375.113 70.16ZM377.081 64.976V64.416C377.081 63.744 376.91 63.2267 376.569 62.864C376.227 62.5013 375.742 62.32 375.113 62.32C374.483 62.32 373.998 62.5067 373.657 62.88C373.315 63.2427 373.145 63.76 373.145 64.432V64.832H377.209L377.081 64.976ZM381.394 71.76V70.336H382.146C382.616 70.336 382.989 70.224 383.266 70C383.544 69.7867 383.65 69.4613 383.586 69.024L383.202 66.432C383.149 65.984 383.202 65.5893 383.362 65.248C383.533 64.896 383.789 64.624 384.13 64.432C384.482 64.2293 384.888 64.128 385.346 64.128V64.208C384.642 64.208 384.082 64.0213 383.666 63.648C383.261 63.264 383.106 62.7307 383.202 62.048L383.586 59.456C383.65 59.0293 383.544 58.704 383.266 58.48C382.989 58.256 382.616 58.144 382.146 58.144H381.394V56.72H382.226C382.856 56.72 383.405 56.8267 383.874 57.04C384.344 57.2533 384.696 57.5627 384.93 57.968C385.165 58.3627 385.245 58.8427 385.17 59.408L384.786 62C384.712 62.5333 384.786 62.9227 385.01 63.168C385.234 63.4133 385.661 63.536 386.29 63.536H388.338V64.96H386.29C385.661 64.96 385.234 65.0827 385.01 65.328C384.786 65.5627 384.712 65.9467 384.786 66.48L385.17 69.056C385.245 69.6213 385.165 70.1067 384.93 70.512C384.696 70.9173 384.344 71.2267 383.874 71.44C383.405 71.6533 382.856 71.76 382.226 71.76H381.394Z" fill="#634763"/>
<g clip-path="url(#clip1_6_728)">
<path d="M204.84 70V63.4133H203.467V62H204.867V60.3333C204.867 59.8178 205 59.4356 205.267 59.1867C205.533 58.9289 205.911 58.8 206.4 58.8H208.467V60.2133H206.587V62H208.307V63.4133H206.6V70H204.84ZM208.779 70L211.619 65.9067L208.912 62H210.899L212.672 64.6267L214.432 62H216.406L213.699 65.9067L216.539 70H214.552L212.659 67.1867L210.752 70H208.779Z" fill="#222425"/>
</g>
<g clip-path="url(#clip2_6_728)">
<mask id="path-5-outside-2_6_728" maskUnits="userSpaceOnUse" x="192" y="80" width="1008" height="34" fill="black">
<rect fill="white" x="192" y="80" width="1008" height="34"/>
<path d="M192 81H1200V113H192V81Z"/>
</mask>
<path d="M192 81H1200V113H192V81Z" fill="#EBEBEC"/>
<path d="M243.36 104.76C242.731 104.76 242.181 104.653 241.712 104.44C241.253 104.237 240.907 103.933 240.672 103.528C240.437 103.133 240.347 102.659 240.4 102.104L240.64 99.48C240.693 98.9147 240.613 98.5093 240.4 98.264C240.187 98.008 239.733 97.88 239.04 97.88H237.2V96.6H239.04C239.733 96.6 240.187 96.4773 240.4 96.232C240.613 95.976 240.693 95.5653 240.64 95L240.4 92.376C240.347 91.8107 240.437 91.3307 240.672 90.936C240.907 90.5413 241.253 90.2427 241.712 90.04C242.181 89.8267 242.731 89.72 243.36 89.72H244.08V91H243.36C242.859 91 242.469 91.1173 242.192 91.352C241.915 91.576 241.797 91.9173 241.84 92.376L242.08 95C242.123 95.4587 242.053 95.8533 241.872 96.184C241.691 96.5147 241.392 96.7707 240.976 96.952C240.571 97.1227 240.032 97.208 239.36 97.208V97.16C240.021 97.16 240.56 97.2613 240.976 97.464C241.392 97.656 241.691 97.928 241.872 98.28C242.053 98.6213 242.123 99.0213 242.08 99.48L241.84 102.104C241.797 102.563 241.915 102.904 242.192 103.128C242.469 103.363 242.859 103.48 243.36 103.48H244.08V104.76H243.36ZM249.626 103.16C248.719 103.16 247.999 102.909 247.466 102.408C246.932 101.896 246.666 101.229 246.666 100.408C246.666 99.864 246.788 99.3893 247.034 98.984C247.279 98.5787 247.62 98.264 248.058 98.04C248.495 97.8053 248.996 97.688 249.562 97.688H252.282V97C252.282 96.424 252.127 95.9973 251.818 95.72C251.508 95.432 251.039 95.288 250.41 95.288C249.855 95.288 249.407 95.3893 249.066 95.592C248.724 95.7947 248.543 96.0773 248.522 96.44H247.082C247.135 95.7467 247.455 95.176 248.042 94.728C248.639 94.2693 249.428 94.04 250.41 94.04C251.476 94.04 252.292 94.296 252.858 94.808C253.434 95.32 253.722 96.0347 253.722 96.952V103H252.298V101.4H252.058L252.282 101.08C252.282 101.507 252.175 101.875 251.962 102.184C251.748 102.493 251.444 102.733 251.05 102.904C250.655 103.075 250.18 103.16 249.626 103.16ZM249.978 101.944C250.682 101.944 251.242 101.773 251.658 101.432C252.074 101.091 252.282 100.627 252.282 100.04V98.808H249.722C249.252 98.808 248.868 98.952 248.57 99.24C248.282 99.5173 248.138 99.8907 248.138 100.36C248.138 100.851 248.298 101.24 248.618 101.528C248.948 101.805 249.402 101.944 249.978 101.944ZM259.972 103.16C258.958 103.16 258.148 102.861 257.539 102.264C256.932 101.656 256.628 100.835 256.628 99.8V94.2H258.068V99.8C258.068 100.44 258.238 100.952 258.58 101.336C258.921 101.709 259.385 101.896 259.972 101.896C260.569 101.896 261.038 101.709 261.38 101.336C261.732 100.952 261.908 100.44 261.908 99.8V94.2H263.348V99.8C263.348 100.835 263.038 101.656 262.42 102.264C261.801 102.861 260.985 103.16 259.972 103.16ZM270.461 103C269.736 103 269.155 102.792 268.717 102.376C268.28 101.949 268.061 101.384 268.061 100.68V95.512H265.533V94.2H268.061V91.72H269.501V94.2H273.101V95.512H269.501V100.68C269.501 100.979 269.587 101.224 269.757 101.416C269.939 101.597 270.173 101.688 270.461 101.688H273.021V103H270.461ZM279.175 103.128C278.471 103.128 277.858 102.989 277.335 102.712C276.823 102.435 276.423 102.035 276.135 101.512C275.858 100.979 275.719 100.344 275.719 99.608V97.592C275.719 96.8453 275.858 96.2107 276.135 95.688C276.423 95.1653 276.823 94.7653 277.335 94.488C277.858 94.2107 278.471 94.072 279.175 94.072C279.89 94.072 280.503 94.2107 281.015 94.488C281.527 94.7653 281.922 95.1653 282.199 95.688C282.487 96.2107 282.631 96.8453 282.631 97.592V99.608C282.631 100.344 282.487 100.979 282.199 101.512C281.922 102.035 281.522 102.435 280.999 102.712C280.487 102.989 279.879 103.128 279.175 103.128ZM279.175 101.848C279.804 101.848 280.295 101.672 280.647 101.32C281.01 100.968 281.191 100.451 281.191 99.768V97.432C281.191 96.7493 281.01 96.232 280.647 95.88C280.295 95.528 279.804 95.352 279.175 95.352C278.556 95.352 278.066 95.528 277.703 95.88C277.34 96.232 277.159 96.7493 277.159 97.432V99.768C277.159 100.451 277.34 100.968 277.703 101.32C278.066 101.672 278.556 101.848 279.175 101.848ZM285.441 103V94.2H286.881V95.88H287.185L286.881 96.216C286.881 95.5227 287.089 94.9893 287.505 94.616C287.921 94.232 288.497 94.04 289.233 94.04C290.118 94.04 290.822 94.312 291.345 94.856C291.867 95.4 292.129 96.1413 292.129 97.08V103H290.689V97.336C290.689 96.664 290.518 96.152 290.177 95.8C289.846 95.4373 289.393 95.256 288.817 95.256C288.219 95.256 287.745 95.4427 287.393 95.816C287.051 96.1893 286.881 96.7173 286.881 97.4V103H285.441ZM298.347 103.16C297.333 103.16 296.523 102.861 295.914 102.264C295.307 101.656 295.003 100.835 295.003 99.8V94.2H296.443V99.8C296.443 100.44 296.613 100.952 296.955 101.336C297.296 101.709 297.76 101.896 298.347 101.896C298.944 101.896 299.413 101.709 299.755 101.336C300.107 100.952 300.283 100.44 300.283 99.8V94.2H301.723V99.8C301.723 100.835 301.413 101.656 300.795 102.264C300.176 102.861 299.36 103.16 298.347 103.16ZM304.116 103V94.2H305.364V95.368H305.684L305.38 95.64C305.38 95.1707 305.514 94.7867 305.78 94.488C306.058 94.1893 306.42 94.04 306.868 94.04C307.38 94.04 307.786 94.232 308.084 94.616C308.383 95 308.532 95.5013 308.532 96.12L308.1 95.288H308.772L308.404 95.64C308.415 95.1493 308.559 94.76 308.836 94.472C309.114 94.184 309.482 94.04 309.94 94.04C310.506 94.04 310.954 94.2533 311.284 94.68C311.626 95.096 311.796 95.64 311.796 96.312V103H310.452V96.296C310.452 95.944 310.367 95.6667 310.196 95.464C310.026 95.2507 309.791 95.144 309.492 95.144C309.204 95.144 308.975 95.2453 308.804 95.448C308.634 95.6507 308.548 95.928 308.548 96.28V103H307.364V96.296C307.364 95.944 307.279 95.6667 307.108 95.464C306.938 95.2507 306.708 95.144 306.42 95.144C306.122 95.144 305.887 95.2453 305.716 95.448C305.546 95.6507 305.46 95.928 305.46 96.28V103H304.116ZM318.062 103.16C317.337 103.16 316.755 102.968 316.318 102.584C315.881 102.189 315.662 101.656 315.662 100.984L315.95 101.32H315.662V103H314.222V91.32H315.662V93.88L315.63 95.88H315.95L315.63 96.216C315.63 95.5547 315.854 95.0267 316.302 94.632C316.761 94.2373 317.347 94.04 318.062 94.04C318.947 94.04 319.651 94.3333 320.174 94.92C320.697 95.5067 320.958 96.3067 320.958 97.32V99.896C320.958 100.899 320.697 101.693 320.174 102.28C319.651 102.867 318.947 103.16 318.062 103.16ZM317.582 101.912C318.19 101.912 318.665 101.752 319.006 101.432C319.347 101.112 319.518 100.595 319.518 99.88V97.32C319.518 96.5947 319.347 96.0773 319.006 95.768C318.665 95.448 318.19 95.288 317.582 95.288C316.995 95.288 316.526 95.4747 316.174 95.848C315.833 96.2213 315.662 96.7387 315.662 97.4V99.8C315.662 100.461 315.833 100.979 316.174 101.352C316.526 101.725 316.995 101.912 317.582 101.912ZM327.144 103.16C326.45 103.16 325.842 103.021 325.32 102.744C324.808 102.456 324.408 102.051 324.12 101.528C323.832 100.995 323.688 100.365 323.688 99.64V97.56C323.688 96.824 323.832 96.1947 324.12 95.672C324.408 95.1493 324.808 94.7493 325.32 94.472C325.842 94.184 326.45 94.04 327.144 94.04C327.837 94.04 328.44 94.1787 328.952 94.456C329.474 94.7333 329.88 95.1227 330.168 95.624C330.456 96.1253 330.6 96.7173 330.6 97.4V98.968H325.096V99.8C325.096 100.451 325.282 100.968 325.656 101.352C326.029 101.725 326.525 101.912 327.144 101.912C327.677 101.912 328.114 101.811 328.456 101.608C328.808 101.395 329.021 101.112 329.096 100.76H330.536C330.44 101.496 330.082 102.083 329.464 102.52C328.845 102.947 328.072 103.16 327.144 103.16ZM329.192 97.992V97.4C329.192 96.7067 329.01 96.1733 328.648 95.8C328.296 95.416 327.794 95.224 327.144 95.224C326.493 95.224 325.986 95.416 325.624 95.8C325.272 96.1733 325.096 96.7067 325.096 97.4V97.848H329.304L329.192 97.992ZM333.73 103V94.2H335.17V95.88H335.474L335.17 96.264C335.17 95.5813 335.378 95.0427 335.794 94.648C336.22 94.2427 336.807 94.04 337.554 94.04C338.471 94.04 339.175 94.3173 339.666 94.872C340.167 95.416 340.418 96.1947 340.418 97.208V97.96H338.978V97.208C338.978 96.5573 338.818 96.0773 338.498 95.768C338.178 95.448 337.714 95.288 337.106 95.288C336.476 95.288 335.996 95.4693 335.666 95.832C335.335 96.1947 335.17 96.7173 335.17 97.4V103H333.73ZM343.051 104.76V103.48H343.771C344.273 103.48 344.667 103.363 344.955 103.128C345.254 102.904 345.366 102.563 345.291 102.104L344.891 99.48C344.827 99.0213 344.875 98.616 345.035 98.264C345.206 97.9013 345.457 97.6187 345.787 97.416C346.129 97.2133 346.523 97.112 346.971 97.112V97.192C346.289 97.192 345.745 97 345.339 96.616C344.934 96.232 344.785 95.6933 344.891 95L345.291 92.376C345.366 91.9173 345.254 91.576 344.955 91.352C344.667 91.1173 344.273 91 343.771 91H343.051V89.72H343.771C344.401 89.72 344.95 89.8267 345.419 90.04C345.899 90.2427 346.257 90.5413 346.491 90.936C346.737 91.3307 346.817 91.8107 346.731 92.376L346.331 95C346.246 95.5653 346.315 95.976 346.539 96.232C346.774 96.4773 347.238 96.6 347.931 96.6H349.931V97.88H347.931C347.249 97.88 346.79 98.008 346.555 98.264C346.321 98.5093 346.246 98.9147 346.331 99.48L346.731 102.104C346.817 102.659 346.737 103.133 346.491 103.528C346.257 103.933 345.899 104.237 345.419 104.44C344.95 104.653 344.401 104.76 343.771 104.76H343.051Z" fill="#634763"/>
<path d="M362.079 101.96V100.568L367.039 98.136C367.241 98.04 367.428 97.96 367.599 97.896C367.78 97.8213 367.913 97.7733 367.999 97.752C367.903 97.7307 367.764 97.6827 367.583 97.608C367.401 97.5333 367.22 97.4533 367.039 97.368L362.079 94.92V93.48L368.959 96.92V98.52L362.079 101.96ZM371.673 96.44V95.16H378.553V96.44H371.673ZM371.673 100.28V99H378.553V100.28H371.673Z" fill="#222425"/>
<path d="M395.9 103V100.44H390.62V98.184L394.876 91.32H396.508L392.06 98.504V99.128H395.9V96.28H397.34V103H395.9ZM403.894 103.16C403.179 103.16 402.555 103.021 402.022 102.744C401.499 102.456 401.094 102.056 400.806 101.544C400.518 101.021 400.374 100.413 400.374 99.72V94.6C400.374 93.896 400.518 93.288 400.806 92.776C401.094 92.264 401.499 91.8693 402.022 91.592C402.555 91.304 403.179 91.16 403.894 91.16C404.619 91.16 405.243 91.304 405.766 91.592C406.288 91.8693 406.694 92.264 406.982 92.776C407.27 93.288 407.414 93.896 407.414 94.6V99.72C407.414 100.413 407.27 101.021 406.982 101.544C406.694 102.056 406.283 102.456 405.75 102.744C405.227 103.021 404.608 103.16 403.894 103.16ZM403.894 101.928C404.534 101.928 405.046 101.725 405.43 101.32C405.824 100.904 406.022 100.371 406.022 99.72V94.6C406.022 93.9493 405.824 93.4213 405.43 93.016C405.046 92.6 404.534 92.392 403.894 92.392C403.254 92.392 402.736 92.6 402.342 93.016C401.958 93.4213 401.766 93.9493 401.766 94.6V99.72C401.766 100.371 401.958 100.904 402.342 101.32C402.736 101.725 403.254 101.928 403.894 101.928ZM403.894 98.04C403.606 98.04 403.371 97.96 403.19 97.8C403.019 97.64 402.934 97.4107 402.934 97.112C402.934 96.824 403.019 96.6053 403.19 96.456C403.371 96.296 403.606 96.216 403.894 96.216C404.182 96.216 404.411 96.296 404.582 96.456C404.763 96.6053 404.854 96.824 404.854 97.112C404.854 97.4107 404.763 97.64 404.582 97.8C404.411 97.96 404.182 98.04 403.894 98.04ZM411.808 103L414.688 97.992L414.64 97.96C414.565 98.0667 414.448 98.1627 414.288 98.248C414.138 98.3333 413.962 98.4027 413.76 98.456C413.557 98.4987 413.338 98.52 413.104 98.52C412.432 98.52 411.84 98.3707 411.328 98.072C410.826 97.7627 410.432 97.3413 410.144 96.808C409.856 96.2747 409.712 95.656 409.712 94.952C409.712 94.1947 409.872 93.5333 410.192 92.968C410.512 92.4027 410.954 91.96 411.52 91.64C412.085 91.32 412.736 91.16 413.472 91.16C414.229 91.16 414.89 91.32 415.456 91.64C416.021 91.9493 416.464 92.3867 416.784 92.952C417.104 93.5067 417.264 94.152 417.264 94.888C417.264 95.4 417.168 95.928 416.976 96.472C416.784 97.0053 416.522 97.5653 416.192 98.152L413.488 103H411.808ZM413.488 97.4C414.181 97.4 414.741 97.1707 415.168 96.712C415.605 96.2533 415.824 95.656 415.824 94.92C415.824 94.4293 415.722 93.9973 415.52 93.624C415.328 93.2507 415.056 92.9627 414.704 92.76C414.362 92.5467 413.957 92.44 413.488 92.44C413.029 92.44 412.624 92.5467 412.272 92.76C411.92 92.9627 411.642 93.2507 411.44 93.624C411.248 93.9973 411.152 94.4293 411.152 94.92C411.152 95.4107 411.248 95.8427 411.44 96.216C411.642 96.5893 411.92 96.8827 412.272 97.096C412.624 97.2987 413.029 97.4 413.488 97.4Z" fill="#2C5662"/>
<mask id="mask0_6_728" style="mask-type:alpha" maskUnits="userSpaceOnUse" x="200" y="87" width="20" height="20">
<rect x="200" y="87" width="20" height="20" fill="#D9D9D9"/>
</mask>
<g mask="url(#mask0_6_728)">
<path d="M208 101.5V100H212V101.5H208ZM205 97.75V96.25H215V97.75H205ZM203 94V92.5H217V94H203Z" fill="#222425"/>
</g>
</g>
<path d="M192 82H1200V80H192V82ZM1200 112H192V114H1200V112Z" fill="#BCC8CD" mask="url(#path-5-outside-2_6_728)"/>
</g>
<defs>
<clipPath id="clip0_6_728">
<rect width="1200" height="600" fill="white"/>
</clipPath>
<clipPath id="clip1_6_728">
<rect width="20" height="20" fill="white" transform="translate(200 54)"/>
</clipPath>
<clipPath id="clip2_6_728">
<path d="M192 81H1200V113H192V81Z" fill="white"/>
</clipPath>
</defs>
</svg>
