<svg width="1200" height="600" viewBox="0 0 1200 600" fill="none" xmlns="http://www.w3.org/2000/svg">
<g clip-path="url(#clip0_6_404)">
<g clip-path="url(#clip1_6_404)">
<mask id="path-1-inside-1_6_404" fill="white">
<path d="M0 48H192V600H0V48Z"/>
</mask>
<path d="M0 48H192V600H0V48Z" fill="#F5FAFD"/>
<mask id="path-3-inside-2_6_404" fill="white">
<path d="M0 48H192V240H0V48Z"/>
</mask>
<path d="M192 239H0V241H192V239Z" fill="#BCC8CD" mask="url(#path-3-inside-2_6_404)"/>
<path d="M21.4933 80H19.7067V70.8H16.32V69.2H24.88V70.8H21.4933V80ZM27.1283 80.1467C26.3283 80.1467 25.6794 79.92 25.1817 79.4667C24.6839 79.0133 24.435 78.4222 24.435 77.6933C24.435 76.9289 24.6883 76.3378 25.195 75.92C25.7106 75.4933 26.435 75.28 27.3683 75.28H29.515V74.9067C29.515 74.4 29.3728 74.0089 29.0883 73.7333C28.8128 73.4489 28.4261 73.3067 27.9283 73.3067C27.5106 73.3067 27.1639 73.4044 26.8883 73.6C26.6128 73.7867 26.435 74.0578 26.355 74.4133H24.5683C24.7106 73.6044 25.0794 72.9733 25.675 72.52C26.2794 72.0667 27.035 71.84 27.9417 71.84C28.9639 71.84 29.7594 72.1111 30.3283 72.6533C30.9061 73.1867 31.195 73.9467 31.195 74.9333V80H29.555V78.7333H29.5017C29.2883 79.1778 28.9728 79.5244 28.555 79.7733C28.1372 80.0222 27.6617 80.1467 27.1283 80.1467ZM27.5017 78.7333C27.8839 78.7333 28.2261 78.6489 28.5283 78.48C28.8306 78.3022 29.0706 78.0667 29.2483 77.7733C29.4261 77.4711 29.515 77.1333 29.515 76.76V76.5333H27.475C27.0306 76.5333 26.6883 76.6311 26.4483 76.8267C26.2172 77.0133 26.1017 77.2756 26.1017 77.6133C26.1017 77.96 26.2261 78.2356 26.475 78.44C26.7328 78.6356 27.075 78.7333 27.5017 78.7333ZM37.5323 80.16C36.4123 80.16 35.6212 79.6933 35.159 78.76H35.1056V80H33.3856V68.8H35.1456V73.2H35.199C35.6434 72.2933 36.4212 71.84 37.5323 71.84C38.199 71.84 38.7812 72.0133 39.279 72.36C39.7767 72.7067 40.1634 73.1911 40.439 73.8133C40.7145 74.4356 40.8523 75.1644 40.8523 76C40.8523 76.8267 40.7145 77.5556 40.439 78.1867C40.1634 78.8089 39.7767 79.2933 39.279 79.64C38.7812 79.9867 38.199 80.16 37.5323 80.16ZM37.0523 78.6C37.6834 78.6 38.1812 78.3644 38.5456 77.8933C38.9101 77.4222 39.0923 76.7911 39.0923 76C39.0923 75.2089 38.9101 74.5778 38.5456 74.1067C38.1812 73.6356 37.6834 73.4 37.0523 73.4C36.4567 73.4 35.9901 73.5956 35.6523 73.9867C35.3145 74.3689 35.1456 74.88 35.1456 75.52V76.48C35.1456 77.12 35.3145 77.6356 35.6523 78.0267C35.9901 78.4089 36.4567 78.6 37.0523 78.6ZM42.6779 80V68.8H44.4379V80H42.6779ZM50.0848 80.16C49.3381 80.16 48.6759 79.9911 48.0981 79.6533C47.5292 79.3067 47.0803 78.8222 46.7515 78.2C46.4226 77.5689 46.2581 76.8267 46.2581 75.9733C46.2581 75.1289 46.4181 74.4 46.7381 73.7867C47.0581 73.1644 47.4981 72.6844 48.0581 72.3467C48.627 72.0089 49.2759 71.84 50.0048 71.84C50.6803 71.84 51.2848 71.9956 51.8181 72.3067C52.3603 72.6089 52.787 73.0489 53.0981 73.6267C53.4092 74.2044 53.5648 74.8978 53.5648 75.7067V76.4H47.9648C48.027 77.1111 48.2448 77.6711 48.6181 78.08C49.0003 78.48 49.4848 78.68 50.0715 78.68C50.4981 78.68 50.8581 78.5778 51.1515 78.3733C51.4537 78.16 51.6537 77.8711 51.7515 77.5067H53.5515C53.4448 78.0578 53.227 78.5333 52.8981 78.9333C52.5692 79.3244 52.1648 79.6267 51.6848 79.84C51.2048 80.0533 50.6715 80.16 50.0848 80.16ZM48.0181 75.1333H51.8581C51.787 74.5467 51.5826 74.0978 51.2448 73.7867C50.9159 73.4667 50.5026 73.3067 50.0048 73.3067C49.4981 73.3067 49.067 73.4667 48.7115 73.7867C48.3648 74.1067 48.1337 74.5556 48.0181 75.1333ZM58.3033 80.16C57.3167 80.16 56.5122 79.9156 55.89 79.4267C55.2767 78.9378 54.9433 78.28 54.89 77.4533H56.5967C56.6589 77.8711 56.8411 78.1911 57.1433 78.4133C57.4544 78.6356 57.8633 78.7467 58.37 78.7467C58.8233 78.7467 59.1656 78.6622 59.3967 78.4933C59.6367 78.3156 59.7567 78.0622 59.7567 77.7333C59.7567 77.2444 59.4189 76.9289 58.7433 76.7867L57.3433 76.48C55.8767 76.1689 55.1433 75.4444 55.1433 74.3067C55.1433 73.5689 55.4189 72.9733 55.97 72.52C56.53 72.0667 57.2589 71.84 58.1567 71.84C59.0544 71.84 59.7922 72.0756 60.37 72.5467C60.9478 73.0089 61.2633 73.6311 61.3167 74.4133H59.6233C59.5433 74.0311 59.37 73.7378 59.1033 73.5333C58.8367 73.32 58.49 73.2133 58.0633 73.2133C57.6811 73.2133 57.3744 73.2978 57.1433 73.4667C56.9122 73.6267 56.7967 73.8533 56.7967 74.1467C56.7967 74.3778 56.8722 74.5644 57.0233 74.7067C57.1833 74.84 57.4278 74.9422 57.7567 75.0133L59.1967 75.32C59.9256 75.48 60.4722 75.7467 60.8367 76.12C61.21 76.4844 61.3967 76.9778 61.3967 77.6C61.3967 78.3822 61.1211 79.0044 60.57 79.4667C60.0189 79.9289 59.2633 80.16 58.3033 80.16Z" fill="#1D2528"/>
<mask id="mask0_6_404" style="mask-type:alpha" maskUnits="userSpaceOnUse" x="156" y="64" width="20" height="20">
<rect x="156" y="64" width="20" height="20" fill="#D9D9D9"/>
</mask>
<g mask="url(#mask0_6_404)">
<path d="M165.25 74.75H161V73.25H165.25V69H166.75V73.25H171V74.75H166.75V79H165.25V74.75Z" fill="#1C1B1F"/>
</g>
<rect x="16" y="100" width="160" height="28" rx="4" fill="#CFE0E6"/>
<path d="M25.3733 120V109.2H29.7867C30.88 109.2 31.7422 109.502 32.3733 110.107C33.0133 110.711 33.3333 111.533 33.3333 112.573C33.3333 113.604 33.0133 114.427 32.3733 115.04C31.7333 115.644 30.8711 115.947 29.7867 115.947H27.1733V120H25.3733ZM27.1733 114.36H29.68C30.2489 114.36 30.6978 114.2 31.0267 113.88C31.3644 113.56 31.5333 113.124 31.5333 112.573C31.5333 112.022 31.3644 111.587 31.0267 111.267C30.6978 110.947 30.2489 110.787 29.68 110.787H27.1733V114.36ZM37.9598 120.16C37.2131 120.16 36.5509 119.991 35.9731 119.653C35.4042 119.307 34.9553 118.822 34.6265 118.2C34.2976 117.569 34.1331 116.827 34.1331 115.973C34.1331 115.129 34.2931 114.4 34.6131 113.787C34.9331 113.164 35.3731 112.684 35.9331 112.347C36.502 112.009 37.1509 111.84 37.8798 111.84C38.5553 111.84 39.1598 111.996 39.6931 112.307C40.2353 112.609 40.662 113.049 40.9731 113.627C41.2842 114.204 41.4398 114.898 41.4398 115.707V116.4H35.8398C35.902 117.111 36.1198 117.671 36.4931 118.08C36.8753 118.48 37.3598 118.68 37.9465 118.68C38.3731 118.68 38.7331 118.578 39.0265 118.373C39.3287 118.16 39.5287 117.871 39.6265 117.507H41.4265C41.3198 118.058 41.102 118.533 40.7731 118.933C40.4442 119.324 40.0398 119.627 39.5598 119.84C39.0798 120.053 38.5465 120.16 37.9598 120.16ZM35.8931 115.133H39.7331C39.662 114.547 39.4576 114.098 39.1198 113.787C38.7909 113.467 38.3776 113.307 37.8798 113.307C37.3731 113.307 36.942 113.467 36.5865 113.787C36.2398 114.107 36.0087 114.556 35.8931 115.133ZM46.6583 120.16C45.9206 120.16 45.2583 119.991 44.6717 119.653C44.0939 119.307 43.6361 118.822 43.2983 118.2C42.9694 117.578 42.805 116.844 42.805 116C42.805 115.147 42.9694 114.409 43.2983 113.787C43.6361 113.164 44.0939 112.684 44.6717 112.347C45.2583 112.009 45.9206 111.84 46.6583 111.84C47.4139 111.84 48.0806 112.009 48.6583 112.347C49.2361 112.684 49.6894 113.164 50.0183 113.787C50.3472 114.409 50.5117 115.147 50.5117 116C50.5117 116.844 50.3472 117.582 50.0183 118.213C49.6894 118.836 49.2317 119.316 48.645 119.653C48.0672 119.991 47.405 120.16 46.6583 120.16ZM46.6583 118.587C47.2983 118.587 47.805 118.351 48.1783 117.88C48.5606 117.409 48.7517 116.782 48.7517 116C48.7517 115.209 48.5606 114.582 48.1783 114.12C47.805 113.649 47.2983 113.413 46.6583 113.413C46.0361 113.413 45.5294 113.649 45.1383 114.12C44.7561 114.582 44.565 115.209 44.565 116C44.565 116.782 44.7561 117.409 45.1383 117.88C45.5294 118.351 46.0361 118.587 46.6583 118.587ZM52.3075 123.2V112H54.0275V113.24H54.0808C54.5431 112.307 55.3342 111.84 56.4542 111.84C57.1208 111.84 57.7031 112.013 58.2008 112.36C58.6986 112.707 59.0853 113.191 59.3608 113.813C59.6364 114.436 59.7742 115.164 59.7742 116C59.7742 116.827 59.6364 117.556 59.3608 118.187C59.0853 118.809 58.6986 119.293 58.2008 119.64C57.7031 119.987 57.1208 120.16 56.4542 120.16C55.3431 120.16 54.5653 119.707 54.1208 118.8H54.0675V123.2H52.3075ZM55.9742 118.6C56.6053 118.6 57.1031 118.364 57.4675 117.893C57.8319 117.422 58.0142 116.791 58.0142 116C58.0142 115.209 57.8319 114.578 57.4675 114.107C57.1031 113.636 56.6053 113.4 55.9742 113.4C55.3786 113.4 54.9119 113.596 54.5742 113.987C54.2364 114.369 54.0675 114.88 54.0675 115.52V116.48C54.0675 117.12 54.2364 117.631 54.5742 118.013C54.9119 118.396 55.3786 118.591 55.9742 118.6ZM61.5998 120V108.8H63.3598V120H61.5998ZM69.0067 120.16C68.26 120.16 67.5978 119.991 67.02 119.653C66.4511 119.307 66.0022 118.822 65.6733 118.2C65.3444 117.569 65.18 116.827 65.18 115.973C65.18 115.129 65.34 114.4 65.66 113.787C65.98 113.164 66.42 112.684 66.98 112.347C67.5489 112.009 68.1978 111.84 68.9267 111.84C69.6022 111.84 70.2067 111.996 70.74 112.307C71.2822 112.609 71.7089 113.049 72.02 113.627C72.3311 114.204 72.4867 114.898 72.4867 115.707V116.4H66.8867C66.9489 117.111 67.1667 117.671 67.54 118.08C67.9222 118.48 68.4067 118.68 68.9933 118.68C69.42 118.68 69.78 118.578 70.0733 118.373C70.3756 118.16 70.5756 117.871 70.6733 117.507H72.4733C72.3667 118.058 72.1489 118.533 71.82 118.933C71.4911 119.324 71.0867 119.627 70.6067 119.84C70.1267 120.053 69.5933 120.16 69.0067 120.16ZM66.94 115.133H70.78C70.7089 114.547 70.5044 114.098 70.1667 113.787C69.8378 113.467 69.4244 113.307 68.9267 113.307C68.42 113.307 67.9889 113.467 67.6333 113.787C67.2867 114.107 67.0556 114.556 66.94 115.133Z" fill="#1D2528"/>
<path d="M85.12 123.2V112H86.84V113.24H86.8933C87.3556 112.307 88.1467 111.84 89.2667 111.84C89.9333 111.84 90.5156 112.013 91.0133 112.36C91.5111 112.707 91.8978 113.191 92.1733 113.813C92.4489 114.436 92.5867 115.164 92.5867 116C92.5867 116.827 92.4489 117.556 92.1733 118.187C91.8978 118.809 91.5111 119.293 91.0133 119.64C90.5156 119.987 89.9333 120.16 89.2667 120.16C88.1556 120.16 87.3778 119.707 86.9333 118.8H86.88V123.2H85.12ZM88.7867 118.6C89.4178 118.6 89.9156 118.364 90.28 117.893C90.6444 117.422 90.8267 116.791 90.8267 116C90.8267 115.209 90.6444 114.578 90.28 114.107C89.9156 113.636 89.4178 113.4 88.7867 113.4C88.1911 113.4 87.7244 113.596 87.3867 113.987C87.0489 114.369 86.88 114.88 86.88 115.52V116.48C86.88 117.12 87.0489 117.631 87.3867 118.013C87.7244 118.396 88.1911 118.591 88.7867 118.6ZM97.7723 120.16C97.0256 120.16 96.3634 119.991 95.7856 119.653C95.2167 119.307 94.7678 118.822 94.439 118.2C94.1101 117.569 93.9456 116.827 93.9456 115.973C93.9456 115.129 94.1056 114.4 94.4256 113.787C94.7456 113.164 95.1856 112.684 95.7456 112.347C96.3145 112.009 96.9634 111.84 97.6923 111.84C98.3678 111.84 98.9723 111.996 99.5056 112.307C100.048 112.609 100.475 113.049 100.786 113.627C101.097 114.204 101.252 114.898 101.252 115.707V116.4H95.6523C95.7145 117.111 95.9323 117.671 96.3056 118.08C96.6878 118.48 97.1723 118.68 97.759 118.68C98.1856 118.68 98.5456 118.578 98.839 118.373C99.1412 118.16 99.3412 117.871 99.439 117.507H101.239C101.132 118.058 100.915 118.533 100.586 118.933C100.257 119.324 99.8523 119.627 99.3723 119.84C98.8923 120.053 98.359 120.16 97.7723 120.16ZM95.7056 115.133H99.5456C99.4745 114.547 99.2701 114.098 98.9323 113.787C98.6034 113.467 98.1901 113.307 97.6923 113.307C97.1856 113.307 96.7545 113.467 96.399 113.787C96.0523 114.107 95.8212 114.556 95.7056 115.133ZM106.471 120.16C105.733 120.16 105.071 119.991 104.484 119.653C103.906 119.307 103.449 118.822 103.111 118.2C102.782 117.578 102.618 116.844 102.618 116C102.618 115.147 102.782 114.409 103.111 113.787C103.449 113.164 103.906 112.684 104.484 112.347C105.071 112.009 105.733 111.84 106.471 111.84C107.226 111.84 107.893 112.009 108.471 112.347C109.049 112.684 109.502 113.164 109.831 113.787C110.16 114.409 110.324 115.147 110.324 116C110.324 116.844 110.16 117.582 109.831 118.213C109.502 118.836 109.044 119.316 108.457 119.653C107.88 119.991 107.218 120.16 106.471 120.16ZM106.471 118.587C107.111 118.587 107.617 118.351 107.991 117.88C108.373 117.409 108.564 116.782 108.564 116C108.564 115.209 108.373 114.582 107.991 114.12C107.617 113.649 107.111 113.413 106.471 113.413C105.849 113.413 105.342 113.649 104.951 114.12C104.569 114.582 104.378 115.209 104.378 116C104.378 116.782 104.569 117.409 104.951 117.88C105.342 118.351 105.849 118.587 106.471 118.587ZM112.12 123.2V112H113.84V113.24H113.893C114.356 112.307 115.147 111.84 116.267 111.84C116.933 111.84 117.516 112.013 118.013 112.36C118.511 112.707 118.898 113.191 119.173 113.813C119.449 114.436 119.587 115.164 119.587 116C119.587 116.827 119.449 117.556 119.173 118.187C118.898 118.809 118.511 119.293 118.013 119.64C117.516 119.987 116.933 120.16 116.267 120.16C115.156 120.16 114.378 119.707 113.933 118.8H113.88V123.2H112.12ZM115.787 118.6C116.418 118.6 116.916 118.364 117.28 117.893C117.644 117.422 117.827 116.791 117.827 116C117.827 115.209 117.644 114.578 117.28 114.107C116.916 113.636 116.418 113.4 115.787 113.4C115.191 113.4 114.724 113.596 114.387 113.987C114.049 114.369 113.88 114.88 113.88 115.52V116.48C113.88 117.12 114.049 117.631 114.387 118.013C114.724 118.396 115.191 118.591 115.787 118.6ZM121.412 120V108.8H123.172V120H121.412ZM128.819 120.16C128.073 120.16 127.41 119.991 126.832 119.653C126.264 119.307 125.815 118.822 125.486 118.2C125.157 117.569 124.993 116.827 124.993 115.973C124.993 115.129 125.153 114.4 125.473 113.787C125.793 113.164 126.232 112.684 126.793 112.347C127.361 112.009 128.01 111.84 128.739 111.84C129.415 111.84 130.019 111.996 130.553 112.307C131.095 112.609 131.521 113.049 131.832 113.627C132.144 114.204 132.299 114.898 132.299 115.707V116.4H126.699C126.761 117.111 126.979 117.671 127.352 118.08C127.735 118.48 128.219 118.68 128.806 118.68C129.233 118.68 129.593 118.578 129.886 118.373C130.188 118.16 130.388 117.871 130.486 117.507H132.286C132.179 118.058 131.961 118.533 131.633 118.933C131.304 119.324 130.899 119.627 130.419 119.84C129.939 120.053 129.406 120.16 128.819 120.16ZM126.753 115.133H130.593C130.521 114.547 130.317 114.098 129.979 113.787C129.65 113.467 129.237 113.307 128.739 113.307C128.233 113.307 127.801 113.467 127.446 113.787C127.099 114.107 126.868 114.556 126.753 115.133Z" fill="#495155" fill-opacity="0.933333"/>
<path d="M25.4533 152V141.2H26.9333V145.747H32.4533V141.2H33.9333V152H32.4533V147.053H26.9333V152H25.4533ZM39.9106 152.16C39.1906 152.16 38.5462 151.991 37.9773 151.653C37.4084 151.307 36.9595 150.822 36.6306 150.2C36.3106 149.569 36.1506 148.827 36.1506 147.973C36.1506 147.129 36.3106 146.4 36.6306 145.787C36.9506 145.164 37.3862 144.684 37.9373 144.347C38.4884 144.009 39.1195 143.84 39.8306 143.84C40.4973 143.84 41.0884 143.991 41.604 144.293C42.1284 144.596 42.5417 145.031 42.844 145.6C43.1462 146.169 43.2973 146.84 43.2973 147.613V148.253H37.5373C37.5906 149.062 37.8306 149.707 38.2573 150.187C38.684 150.667 39.2306 150.907 39.8973 150.907C40.3773 150.907 40.7862 150.787 41.124 150.547C41.4617 150.307 41.6884 149.978 41.804 149.56H43.2706C43.164 150.102 42.9506 150.569 42.6306 150.96C42.3106 151.342 41.9195 151.64 41.4573 151.853C40.9951 152.058 40.4795 152.16 39.9106 152.16ZM37.604 147.16H41.8973C41.8351 146.502 41.6173 145.991 41.244 145.627C40.8706 145.262 40.3951 145.08 39.8173 145.08C39.2484 145.08 38.7684 145.267 38.3773 145.64C37.9862 146.004 37.7284 146.511 37.604 147.16ZM45.3158 152V140.8H46.7558V152H45.3158ZM49.229 155.2V144H50.6556V145.307H50.709C51.1712 144.329 51.989 143.84 53.1623 143.84C53.829 143.84 54.4112 144.013 54.909 144.36C55.4067 144.707 55.7934 145.191 56.069 145.813C56.3445 146.436 56.4823 147.164 56.4823 148C56.4823 148.827 56.3445 149.556 56.069 150.187C55.7934 150.809 55.4067 151.293 54.909 151.64C54.4112 151.987 53.829 152.16 53.1623 152.16C51.989 152.16 51.1756 151.676 50.7223 150.707H50.669V155.2H49.229ZM52.7756 150.88C53.469 150.88 54.0201 150.618 54.429 150.093C54.8378 149.569 55.0423 148.871 55.0423 148C55.0423 147.129 54.8378 146.431 54.429 145.907C54.0201 145.382 53.469 145.12 52.7756 145.12C52.109 145.12 51.589 145.333 51.2156 145.76C50.8512 146.178 50.669 146.729 50.669 147.413V148.587C50.669 149.271 50.8512 149.822 51.2156 150.24C51.589 150.649 52.109 150.862 52.7756 150.88ZM62.6565 152V141.2H67.2698C67.9276 141.2 68.5009 141.316 68.9898 141.547C69.4876 141.778 69.8742 142.116 70.1498 142.56C70.4342 142.996 70.5765 143.529 70.5765 144.16C70.5765 144.64 70.4742 145.08 70.2698 145.48C70.0653 145.871 69.7365 146.187 69.2831 146.427V146.48C69.7009 146.48 70.0209 146.596 70.2431 146.827C70.4653 147.049 70.5765 147.369 70.5765 147.787V152H69.1098V147.573H64.1365V152H62.6565ZM64.1365 146.307H67.1231C67.7187 146.307 68.1987 146.142 68.5631 145.813C68.9365 145.476 69.1231 145.004 69.1231 144.4C69.1231 143.787 68.9365 143.316 68.5631 142.987C68.1987 142.658 67.7187 142.493 67.1231 142.493H64.1365V146.307ZM76.3325 152.16C75.6125 152.16 74.9681 151.991 74.3992 151.653C73.8303 151.307 73.3814 150.822 73.0525 150.2C72.7325 149.569 72.5725 148.827 72.5725 147.973C72.5725 147.129 72.7325 146.4 73.0525 145.787C73.3725 145.164 73.8081 144.684 74.3592 144.347C74.9103 144.009 75.5414 143.84 76.2525 143.84C76.9192 143.84 77.5103 143.991 78.0258 144.293C78.5503 144.596 78.9636 145.031 79.2658 145.6C79.5681 146.169 79.7192 146.84 79.7192 147.613V148.253H73.9592C74.0125 149.062 74.2525 149.707 74.6792 150.187C75.1058 150.667 75.6525 150.907 76.3192 150.907C76.7992 150.907 77.2081 150.787 77.5458 150.547C77.8836 150.307 78.1103 149.978 78.2258 149.56H79.6925C79.5858 150.102 79.3725 150.569 79.0525 150.96C78.7325 151.342 78.3414 151.64 77.8792 151.853C77.4169 152.058 76.9014 152.16 76.3325 152.16ZM74.0258 147.16H78.3192C78.2569 146.502 78.0392 145.991 77.6658 145.627C77.2925 145.262 76.8169 145.08 76.2392 145.08C75.6703 145.08 75.1903 145.267 74.7992 145.64C74.4081 146.004 74.1503 146.511 74.0258 147.16ZM87.0577 155.2V150.707H87.0044C86.551 151.676 85.7377 152.16 84.5644 152.16C83.8977 152.16 83.3155 151.987 82.8177 151.64C82.3199 151.293 81.9333 150.809 81.6577 150.187C81.3822 149.556 81.2444 148.827 81.2444 148C81.2444 147.164 81.3822 146.436 81.6577 145.813C81.9333 145.191 82.3199 144.707 82.8177 144.36C83.3155 144.013 83.8977 143.84 84.5644 143.84C85.7377 143.84 86.5555 144.329 87.0177 145.307H87.071V144H88.4977V155.2H87.0577ZM84.951 150.88C85.6177 150.862 86.1333 150.649 86.4977 150.24C86.871 149.822 87.0577 149.271 87.0577 148.587V147.413C87.0577 146.729 86.871 146.178 86.4977 145.76C86.1333 145.333 85.6177 145.12 84.951 145.12C84.2666 145.12 83.7155 145.382 83.2977 145.907C82.8888 146.431 82.6844 147.129 82.6844 148C82.6844 148.871 82.8888 149.569 83.2977 150.093C83.7155 150.618 84.2666 150.88 84.951 150.88ZM93.7987 152.147C93.221 152.147 92.7099 152.013 92.2654 151.747C91.8299 151.48 91.4876 151.107 91.2387 150.627C90.9988 150.147 90.8788 149.596 90.8788 148.973V144H92.3188V148.653C92.3188 149.338 92.4876 149.876 92.8254 150.267C93.1632 150.649 93.6343 150.84 94.2387 150.84C94.8699 150.84 95.3721 150.64 95.7454 150.24C96.1276 149.831 96.3188 149.298 96.3188 148.64V144H97.7587V152H96.3321V150.613H96.2787C96.0565 151.111 95.7321 151.493 95.3054 151.76C94.8788 152.018 94.3765 152.147 93.7987 152.147ZM103.489 152.16C102.769 152.16 102.124 151.991 101.555 151.653C100.987 151.307 100.538 150.822 100.209 150.2C99.8887 149.569 99.7287 148.827 99.7287 147.973C99.7287 147.129 99.8887 146.4 100.209 145.787C100.529 145.164 100.964 144.684 101.515 144.347C102.067 144.009 102.698 143.84 103.409 143.84C104.075 143.84 104.667 143.991 105.182 144.293C105.707 144.596 106.12 145.031 106.422 145.6C106.724 146.169 106.875 146.84 106.875 147.613V148.253H101.115C101.169 149.062 101.409 149.707 101.835 150.187C102.262 150.667 102.809 150.907 103.475 150.907C103.955 150.907 104.364 150.787 104.702 150.547C105.04 150.307 105.267 149.978 105.382 149.56H106.849C106.742 150.102 106.529 150.569 106.209 150.96C105.889 151.342 105.498 151.64 105.035 151.853C104.573 152.058 104.058 152.16 103.489 152.16ZM101.182 147.16H105.475C105.413 146.502 105.195 145.991 104.822 145.627C104.449 145.262 103.973 145.08 103.395 145.08C102.827 145.08 102.347 145.267 101.955 145.64C101.564 146.004 101.307 146.511 101.182 147.16ZM111.601 152.16C110.641 152.16 109.858 151.924 109.254 151.453C108.658 150.973 108.334 150.333 108.281 149.533H109.694C109.756 149.996 109.956 150.351 110.294 150.6C110.632 150.84 111.085 150.96 111.654 150.96C112.178 150.96 112.578 150.858 112.854 150.653C113.13 150.449 113.267 150.16 113.267 149.787C113.267 149.2 112.863 148.822 112.054 148.653L110.734 148.36C109.294 148.058 108.574 147.347 108.574 146.227C108.574 145.516 108.841 144.942 109.374 144.507C109.907 144.062 110.605 143.84 111.467 143.84C112.321 143.84 113.023 144.067 113.574 144.52C114.134 144.964 114.45 145.569 114.521 146.333H113.134C113.045 145.916 112.85 145.596 112.547 145.373C112.254 145.142 111.872 145.027 111.401 145.027C110.947 145.027 110.587 145.124 110.321 145.32C110.054 145.516 109.921 145.782 109.921 146.12C109.921 146.387 110.014 146.604 110.201 146.773C110.387 146.933 110.685 147.058 111.094 147.147L112.427 147.427C113.156 147.587 113.698 147.853 114.054 148.227C114.418 148.591 114.601 149.071 114.601 149.667C114.601 150.431 114.334 151.04 113.801 151.493C113.267 151.938 112.534 152.16 111.601 152.16ZM118.125 152C117.717 152 117.397 151.893 117.165 151.68C116.934 151.458 116.819 151.129 116.819 150.693V145.147H115.459V144H116.832V141.6H118.245V144H120.152V145.147H118.259V150.853H120.339V152H118.125ZM124.616 152.16C123.656 152.16 122.874 151.924 122.27 151.453C121.674 150.973 121.35 150.333 121.296 149.533H122.71C122.772 149.996 122.972 150.351 123.31 150.6C123.647 150.84 124.101 150.96 124.67 150.96C125.194 150.96 125.594 150.858 125.87 150.653C126.145 150.449 126.283 150.16 126.283 149.787C126.283 149.2 125.878 148.822 125.07 148.653L123.75 148.36C122.31 148.058 121.59 147.347 121.59 146.227C121.59 145.516 121.856 144.942 122.39 144.507C122.923 144.062 123.621 143.84 124.483 143.84C125.336 143.84 126.038 144.067 126.59 144.52C127.15 144.964 127.465 145.569 127.536 146.333H126.15C126.061 145.916 125.865 145.596 125.563 145.373C125.27 145.142 124.887 145.027 124.416 145.027C123.963 145.027 123.603 145.124 123.336 145.32C123.07 145.516 122.936 145.782 122.936 146.12C122.936 146.387 123.03 146.604 123.216 146.773C123.403 146.933 123.701 147.058 124.11 147.147L125.443 147.427C126.172 147.587 126.714 147.853 127.07 148.227C127.434 148.591 127.616 149.071 127.616 149.667C127.616 150.431 127.35 151.04 126.816 151.493C126.283 151.938 125.55 152.16 124.616 152.16Z" fill="#1D2528"/>
<path d="M140.213 152V140.8H141.653V145.173H141.707C141.938 144.764 142.262 144.44 142.68 144.2C143.098 143.96 143.587 143.84 144.147 143.84C144.724 143.84 145.236 143.978 145.68 144.253C146.124 144.529 146.471 144.911 146.72 145.4C146.969 145.889 147.093 146.458 147.093 147.107V152H145.653V147.32C145.653 146.627 145.476 146.089 145.12 145.707C144.773 145.324 144.284 145.133 143.653 145.133C143.022 145.133 142.529 145.324 142.173 145.707C141.827 146.089 141.653 146.627 141.653 147.32V152H140.213ZM152.77 152.16C152.05 152.16 151.406 151.991 150.837 151.653C150.268 151.307 149.819 150.822 149.49 150.2C149.17 149.569 149.01 148.827 149.01 147.973C149.01 147.129 149.17 146.4 149.49 145.787C149.81 145.164 150.246 144.684 150.797 144.347C151.348 144.009 151.979 143.84 152.69 143.84C153.357 143.84 153.948 143.991 154.463 144.293C154.988 144.596 155.401 145.031 155.703 145.6C156.006 146.169 156.157 146.84 156.157 147.613V148.253H150.397C150.45 149.062 150.69 149.707 151.117 150.187C151.543 150.667 152.09 150.907 152.757 150.907C153.237 150.907 153.646 150.787 153.983 150.547C154.321 150.307 154.548 149.978 154.663 149.56H156.13C156.023 150.102 155.81 150.569 155.49 150.96C155.17 151.342 154.779 151.64 154.317 151.853C153.854 152.058 153.339 152.16 152.77 152.16ZM150.463 147.16H154.757C154.694 146.502 154.477 145.991 154.103 145.627C153.73 145.262 153.254 145.08 152.677 145.08C152.108 145.08 151.628 145.267 151.237 145.64C150.846 146.004 150.588 146.511 150.463 147.16ZM158.175 152V140.8H159.615V152H158.175ZM162.088 155.2V144H163.515V145.307H163.568C164.031 144.329 164.848 143.84 166.022 143.84C166.688 143.84 167.271 144.013 167.768 144.36C168.266 144.707 168.653 145.191 168.928 145.813C169.204 146.436 169.342 147.164 169.342 148C169.342 148.827 169.204 149.556 168.928 150.187C168.653 150.809 168.266 151.293 167.768 151.64C167.271 151.987 166.688 152.16 166.022 152.16C164.848 152.16 164.035 151.676 163.582 150.707H163.528V155.2H162.088ZM165.635 150.88C166.328 150.88 166.879 150.618 167.288 150.093C167.697 149.569 167.902 148.871 167.902 148C167.902 147.129 167.697 146.431 167.288 145.907C166.879 145.382 166.328 145.12 165.635 145.12C164.968 145.12 164.448 145.333 164.075 145.76C163.711 146.178 163.528 146.729 163.528 147.413V148.587C163.528 149.271 163.711 149.822 164.075 150.24C164.448 150.649 164.968 150.862 165.635 150.88Z" fill="#495155" fill-opacity="0.933333"/>
<path d="M25.4533 184V173.2H27.5733L30.88 181.907H30.9333L34.2533 173.2H36.36V184H34.88V175H34.8267L31.4667 184H30.2533L26.88 174.987H26.8267V184H25.4533ZM41.0925 184.147C40.3014 184.147 39.6569 183.924 39.1592 183.48C38.6703 183.027 38.4258 182.444 38.4258 181.733C38.4258 180.978 38.6703 180.391 39.1592 179.973C39.6569 179.547 40.3592 179.333 41.2658 179.333H43.5992V178.933C43.5992 178.347 43.4392 177.893 43.1192 177.573C42.8081 177.244 42.3681 177.08 41.7992 177.08C41.3281 177.08 40.9369 177.191 40.6258 177.413C40.3236 177.627 40.1236 177.933 40.0258 178.333H38.5592C38.6925 177.56 39.0525 176.951 39.6392 176.507C40.2258 176.062 40.9547 175.84 41.8258 175.84C42.8125 175.84 43.5814 176.107 44.1325 176.64C44.6925 177.173 44.9725 177.924 44.9725 178.893V184H43.6125V182.613H43.5592C43.3547 183.084 43.0303 183.458 42.5858 183.733C42.1414 184.009 41.6436 184.147 41.0925 184.147ZM41.3858 182.947C41.8036 182.947 42.1769 182.849 42.5058 182.653C42.8436 182.458 43.1103 182.196 43.3058 181.867C43.5014 181.529 43.5992 181.156 43.5992 180.747V180.427H41.3592C40.8436 180.427 40.4481 180.538 40.1725 180.76C39.9058 180.973 39.7725 181.276 39.7725 181.667C39.7725 182.058 39.9192 182.369 40.2125 182.6C40.5058 182.831 40.8969 182.947 41.3858 182.947ZM50.6183 184.16C49.9072 184.16 49.2672 183.991 48.6983 183.653C48.1383 183.307 47.6939 182.822 47.365 182.2C47.045 181.578 46.885 180.844 46.885 180C46.885 179.147 47.045 178.409 47.365 177.787C47.6939 177.164 48.1383 176.684 48.6983 176.347C49.2672 176.009 49.9072 175.84 50.6183 175.84C51.1783 175.84 51.6894 175.947 52.1517 176.16C52.6228 176.364 53.0183 176.676 53.3383 177.093C53.6672 177.502 53.8939 178.022 54.0183 178.653H52.525C52.4006 178.129 52.165 177.747 51.8183 177.507C51.4806 177.267 51.0806 177.147 50.6183 177.147C49.9339 177.147 49.3783 177.404 48.9517 177.92C48.5339 178.436 48.325 179.129 48.325 180C48.325 180.862 48.5339 181.556 48.9517 182.08C49.3783 182.596 49.9339 182.853 50.6183 182.853C51.1072 182.853 51.525 182.724 51.8717 182.467C52.2272 182.209 52.4717 181.791 52.605 181.213H54.0583C53.9428 181.871 53.7206 182.418 53.3917 182.853C53.0628 183.289 52.6628 183.618 52.1917 183.84C51.7206 184.053 51.1961 184.16 50.6183 184.16ZM55.7819 184V176H57.1552V177.6H57.2085C57.3863 177.102 57.6752 176.702 58.0752 176.4C58.4841 176.089 58.9819 175.933 59.5685 175.933H60.1552V177.213H59.4885C58.7508 177.213 58.1863 177.449 57.7952 177.92C57.413 178.391 57.2219 179.027 57.2219 179.827V184H55.7819ZM64.7365 184.16C64.0165 184.16 63.372 183.991 62.8031 183.653C62.2342 183.307 61.7853 182.822 61.4565 182.2C61.1276 181.578 60.9631 180.844 60.9631 180C60.9631 179.147 61.1276 178.409 61.4565 177.787C61.7853 177.164 62.2342 176.684 62.8031 176.347C63.372 176.009 64.0165 175.84 64.7365 175.84C65.4742 175.84 66.1276 176.009 66.6965 176.347C67.2653 176.684 67.7098 177.164 68.0298 177.787C68.3498 178.409 68.5098 179.147 68.5098 180C68.5098 180.844 68.3453 181.582 68.0165 182.213C67.6965 182.836 67.252 183.316 66.6831 183.653C66.1142 183.991 65.4653 184.16 64.7365 184.16ZM64.7365 182.853C65.4476 182.853 66.012 182.596 66.4298 182.08C66.8565 181.556 67.0698 180.862 67.0698 180C67.0698 179.129 66.8565 178.436 66.4298 177.92C66.012 177.404 65.4476 177.147 64.7365 177.147C64.0342 177.147 63.4698 177.404 63.0431 177.92C62.6165 178.436 62.4031 179.129 62.4031 180C62.4031 180.862 62.6165 181.556 63.0431 182.08C63.4698 182.596 64.0342 182.853 64.7365 182.853ZM73.2256 184.16C72.2656 184.16 71.4834 183.924 70.879 183.453C70.2834 182.973 69.959 182.333 69.9056 181.533H71.319C71.3812 181.996 71.5812 182.351 71.919 182.6C72.2567 182.84 72.7101 182.96 73.279 182.96C73.8034 182.96 74.2034 182.858 74.479 182.653C74.7545 182.449 74.8923 182.16 74.8923 181.787C74.8923 181.2 74.4878 180.822 73.679 180.653L72.359 180.36C70.919 180.058 70.199 179.347 70.199 178.227C70.199 177.516 70.4656 176.942 70.999 176.507C71.5323 176.062 72.2301 175.84 73.0923 175.84C73.9456 175.84 74.6478 176.067 75.199 176.52C75.759 176.964 76.0745 177.569 76.1456 178.333H74.759C74.6701 177.916 74.4745 177.596 74.1723 177.373C73.879 177.142 73.4967 177.027 73.0256 177.027C72.5723 177.027 72.2123 177.124 71.9456 177.32C71.679 177.516 71.5456 177.782 71.5456 178.12C71.5456 178.387 71.639 178.604 71.8256 178.773C72.0123 178.933 72.3101 179.058 72.719 179.147L74.0523 179.427C74.7812 179.587 75.3234 179.853 75.679 180.227C76.0434 180.591 76.2256 181.071 76.2256 181.667C76.2256 182.431 75.959 183.04 75.4256 183.493C74.8923 183.938 74.159 184.16 73.2256 184.16Z" fill="#1D2528"/>
<path d="M88.2133 184V176H89.6267V177.293H89.68C89.8844 176.822 90.1822 176.467 90.5733 176.227C90.9733 175.978 91.44 175.853 91.9733 175.853C92.5156 175.853 92.9956 175.987 93.4133 176.253C93.84 176.511 94.1644 176.884 94.3867 177.373H94.4267C94.6933 176.884 95.04 176.511 95.4667 176.253C95.8933 175.987 96.3867 175.853 96.9467 175.853C97.5156 175.853 98.0178 175.987 98.4533 176.253C98.8889 176.511 99.2222 176.88 99.4533 177.36C99.6933 177.84 99.8133 178.404 99.8133 179.053V184H98.3733V179.267C98.3733 178.6 98.2133 178.084 97.8933 177.72C97.5733 177.347 97.1289 177.16 96.56 177.16C96 177.16 95.5556 177.347 95.2267 177.72C94.8978 178.084 94.7333 178.6 94.7333 179.267V184H93.2933V179.267C93.2933 178.6 93.1289 178.084 92.8 177.72C92.48 177.347 92.0356 177.16 91.4667 177.16C90.9067 177.16 90.4622 177.347 90.1333 177.72C89.8133 178.084 89.6533 178.6 89.6533 179.267V184H88.2133ZM104.249 184.147C103.458 184.147 102.813 183.924 102.315 183.48C101.827 183.027 101.582 182.444 101.582 181.733C101.582 180.978 101.827 180.391 102.315 179.973C102.813 179.547 103.515 179.333 104.422 179.333H106.755V178.933C106.755 178.347 106.595 177.893 106.275 177.573C105.964 177.244 105.524 177.08 104.955 177.08C104.484 177.08 104.093 177.191 103.782 177.413C103.48 177.627 103.28 177.933 103.182 178.333H101.715C101.849 177.56 102.209 176.951 102.795 176.507C103.382 176.062 104.111 175.84 104.982 175.84C105.969 175.84 106.738 176.107 107.289 176.64C107.849 177.173 108.129 177.924 108.129 178.893V184H106.769V182.613H106.715C106.511 183.084 106.187 183.458 105.742 183.733C105.298 184.009 104.8 184.147 104.249 184.147ZM104.542 182.947C104.96 182.947 105.333 182.849 105.662 182.653C106 182.458 106.267 182.196 106.462 181.867C106.658 181.529 106.755 181.156 106.755 180.747V180.427H104.515C104 180.427 103.604 180.538 103.329 180.76C103.062 180.973 102.929 181.276 102.929 181.667C102.929 182.058 103.075 182.369 103.369 182.6C103.662 182.831 104.053 182.947 104.542 182.947ZM113.775 184.16C113.063 184.16 112.423 183.991 111.855 183.653C111.295 183.307 110.85 182.822 110.521 182.2C110.201 181.578 110.041 180.844 110.041 180C110.041 179.147 110.201 178.409 110.521 177.787C110.85 177.164 111.295 176.684 111.855 176.347C112.423 176.009 113.063 175.84 113.775 175.84C114.335 175.84 114.846 175.947 115.308 176.16C115.779 176.364 116.175 176.676 116.495 177.093C116.823 177.502 117.05 178.022 117.175 178.653H115.681C115.557 178.129 115.321 177.747 114.975 177.507C114.637 177.267 114.237 177.147 113.775 177.147C113.09 177.147 112.535 177.404 112.108 177.92C111.69 178.436 111.481 179.129 111.481 180C111.481 180.862 111.69 181.556 112.108 182.08C112.535 182.596 113.09 182.853 113.775 182.853C114.263 182.853 114.681 182.724 115.028 182.467C115.383 182.209 115.628 181.791 115.761 181.213H117.215C117.099 181.871 116.877 182.418 116.548 182.853C116.219 183.289 115.819 183.618 115.348 183.84C114.877 184.053 114.352 184.16 113.775 184.16ZM118.938 184V176H120.311V177.6H120.365C120.543 177.102 120.831 176.702 121.231 176.4C121.64 176.089 122.138 175.933 122.725 175.933H123.311V177.213H122.645C121.907 177.213 121.343 177.449 120.951 177.92C120.569 178.391 120.378 179.027 120.378 179.827V184H118.938ZM127.893 184.16C127.173 184.16 126.528 183.991 125.959 183.653C125.39 183.307 124.942 182.822 124.613 182.2C124.284 181.578 124.119 180.844 124.119 180C124.119 179.147 124.284 178.409 124.613 177.787C124.942 177.164 125.39 176.684 125.959 176.347C126.528 176.009 127.173 175.84 127.893 175.84C128.63 175.84 129.284 176.009 129.853 176.347C130.422 176.684 130.866 177.164 131.186 177.787C131.506 178.409 131.666 179.147 131.666 180C131.666 180.844 131.502 181.582 131.173 182.213C130.853 182.836 130.408 183.316 129.839 183.653C129.27 183.991 128.622 184.16 127.893 184.16ZM127.893 182.853C128.604 182.853 129.168 182.596 129.586 182.08C130.013 181.556 130.226 180.862 130.226 180C130.226 179.129 130.013 178.436 129.586 177.92C129.168 177.404 128.604 177.147 127.893 177.147C127.19 177.147 126.626 177.404 126.199 177.92C125.773 178.436 125.559 179.129 125.559 180C125.559 180.862 125.773 181.556 126.199 182.08C126.626 182.596 127.19 182.853 127.893 182.853ZM136.382 184.16C135.422 184.16 134.64 183.924 134.035 183.453C133.44 182.973 133.115 182.333 133.062 181.533H134.475C134.537 181.996 134.737 182.351 135.075 182.6C135.413 182.84 135.866 182.96 136.435 182.96C136.96 182.96 137.36 182.858 137.635 182.653C137.911 182.449 138.049 182.16 138.049 181.787C138.049 181.2 137.644 180.822 136.835 180.653L135.515 180.36C134.075 180.058 133.355 179.347 133.355 178.227C133.355 177.516 133.622 176.942 134.155 176.507C134.689 176.062 135.386 175.84 136.249 175.84C137.102 175.84 137.804 176.067 138.355 176.52C138.915 176.964 139.231 177.569 139.302 178.333H137.915C137.826 177.916 137.631 177.596 137.329 177.373C137.035 177.142 136.653 177.027 136.182 177.027C135.729 177.027 135.369 177.124 135.102 177.32C134.835 177.516 134.702 177.782 134.702 178.12C134.702 178.387 134.795 178.604 134.982 178.773C135.169 178.933 135.466 179.058 135.875 179.147L137.209 179.427C137.937 179.587 138.48 179.853 138.835 180.227C139.2 180.591 139.382 181.071 139.382 181.667C139.382 182.431 139.115 183.04 138.582 183.493C138.049 183.938 137.315 184.16 136.382 184.16Z" fill="#495155" fill-opacity="0.933333"/>
<path d="M25.4533 216V205.2H26.9333V209.747H32.4533V205.2H33.9333V216H32.4533V211.053H26.9333V216H25.4533ZM36.644 216V208H38.084V216H36.644ZM37.364 206.907C37.1151 206.907 36.9017 206.818 36.724 206.64C36.5462 206.462 36.4573 206.249 36.4573 206C36.4573 205.751 36.5462 205.538 36.724 205.36C36.9017 205.182 37.1151 205.093 37.364 205.093C37.6128 205.093 37.8262 205.182 38.004 205.36C38.1817 205.538 38.2706 205.751 38.2706 206C38.2706 206.249 38.1817 206.462 38.004 206.64C37.8262 206.818 37.6128 206.907 37.364 206.907ZM43.7038 219.36C42.7171 219.36 41.8949 219.12 41.2371 218.64C40.5793 218.169 40.1971 217.538 40.0904 216.747H41.6237C41.7126 217.173 41.9393 217.507 42.3038 217.747C42.6682 217.987 43.126 218.107 43.6771 218.107C44.3882 218.107 44.9438 217.902 45.3438 217.493C45.7526 217.084 45.9571 216.529 45.9571 215.827V214.533H45.9037C45.7082 215.004 45.4015 215.369 44.9838 215.627C44.5749 215.876 44.0904 216 43.5304 216C42.8549 216 42.2593 215.831 41.7438 215.493C41.2371 215.147 40.8415 214.667 40.5571 214.053C40.2726 213.44 40.1304 212.729 40.1304 211.92C40.1304 211.111 40.2726 210.4 40.5571 209.787C40.8415 209.173 41.2371 208.698 41.7438 208.36C42.2593 208.013 42.8549 207.84 43.5304 207.84C44.0904 207.84 44.5749 207.969 44.9838 208.227C45.4015 208.476 45.7082 208.831 45.9037 209.293H45.9571V208H47.3837V215.893C47.3837 216.96 47.0504 217.804 46.3837 218.427C45.726 219.049 44.8326 219.36 43.7038 219.36ZM43.8771 214.693C44.5082 214.693 45.0104 214.489 45.3837 214.08C45.7571 213.671 45.9438 213.129 45.9438 212.453V211.387C45.9438 210.711 45.7526 210.169 45.3704 209.76C44.9971 209.351 44.4993 209.147 43.8771 209.147C43.1749 209.147 42.6149 209.4 42.1971 209.907C41.7793 210.404 41.5704 211.076 41.5704 211.92C41.5704 212.764 41.7793 213.44 42.1971 213.947C42.6149 214.444 43.1749 214.693 43.8771 214.693ZM49.8071 216V204.8H51.2471V209.173H51.3004C51.5315 208.764 51.856 208.44 52.2738 208.2C52.6915 207.96 53.1804 207.84 53.7404 207.84C54.3182 207.84 54.8293 207.978 55.2738 208.253C55.7182 208.529 56.0649 208.911 56.3138 209.4C56.5626 209.889 56.6871 210.458 56.6871 211.107V216H55.2471V211.32C55.2471 210.627 55.0693 210.089 54.7138 209.707C54.3671 209.324 53.8782 209.133 53.2471 209.133C52.616 209.133 52.1226 209.324 51.7671 209.707C51.4204 210.089 51.2471 210.627 51.2471 211.32V216H49.8071ZM66.7835 216.16C65.948 216.16 65.2147 216.018 64.5835 215.733C63.9524 215.44 63.4547 215.04 63.0902 214.533C62.7347 214.018 62.5347 213.418 62.4902 212.733H64.0369C64.1169 213.427 64.4013 213.956 64.8902 214.32C65.388 214.684 66.0369 214.867 66.8369 214.867C67.5924 214.867 68.1747 214.711 68.5835 214.4C68.9924 214.08 69.1969 213.636 69.1969 213.067C69.1969 212.613 69.0502 212.24 68.7569 211.947C68.4724 211.644 68.0235 211.431 67.4102 211.307L65.7035 210.92C64.8058 210.724 64.1213 210.387 63.6502 209.907C63.1791 209.427 62.9435 208.818 62.9435 208.08C62.9435 207.484 63.0902 206.96 63.3835 206.507C63.6858 206.044 64.108 205.684 64.6502 205.427C65.2013 205.169 65.8458 205.04 66.5835 205.04C67.3391 205.04 68.0013 205.178 68.5702 205.453C69.1391 205.72 69.5924 206.098 69.9302 206.587C70.2769 207.067 70.4858 207.636 70.5569 208.293H69.0102C68.8947 207.644 68.6191 207.156 68.1835 206.827C67.748 206.489 67.188 206.32 66.5035 206.32C65.8635 206.32 65.348 206.467 64.9569 206.76C64.5747 207.053 64.3835 207.453 64.3835 207.96C64.3835 208.36 64.5169 208.702 64.7835 208.987C65.0591 209.262 65.5035 209.467 66.1169 209.6L67.8902 210C68.8058 210.204 69.4902 210.551 69.9435 211.04C70.4058 211.529 70.6369 212.164 70.6369 212.947C70.6369 213.924 70.2947 214.707 69.6102 215.293C68.9347 215.871 67.9924 216.16 66.7835 216.16ZM75.9731 216.16C75.2531 216.16 74.6087 215.991 74.0398 215.653C73.4709 215.307 73.022 214.822 72.6931 214.2C72.3731 213.569 72.2131 212.827 72.2131 211.973C72.2131 211.129 72.3731 210.4 72.6931 209.787C73.0131 209.164 73.4487 208.684 73.9998 208.347C74.5509 208.009 75.182 207.84 75.8931 207.84C76.5598 207.84 77.1509 207.991 77.6665 208.293C78.1909 208.596 78.6042 209.031 78.9065 209.6C79.2087 210.169 79.3598 210.84 79.3598 211.613V212.253H73.5998C73.6531 213.062 73.8931 213.707 74.3198 214.187C74.7465 214.667 75.2931 214.907 75.9598 214.907C76.4398 214.907 76.8487 214.787 77.1865 214.547C77.5242 214.307 77.7509 213.978 77.8665 213.56H79.3331C79.2265 214.102 79.0131 214.569 78.6931 214.96C78.3731 215.342 77.982 215.64 77.5198 215.853C77.0576 216.058 76.542 216.16 75.9731 216.16ZM73.6665 211.16H77.9598C77.8976 210.502 77.6798 209.991 77.3065 209.627C76.9331 209.262 76.4576 209.08 75.8798 209.08C75.3109 209.08 74.8309 209.267 74.4398 209.64C74.0487 210.004 73.7909 210.511 73.6665 211.16ZM83.405 216.147C82.6139 216.147 81.9694 215.924 81.4717 215.48C80.9828 215.027 80.7383 214.444 80.7383 213.733C80.7383 212.978 80.9828 212.391 81.4717 211.973C81.9694 211.547 82.6717 211.333 83.5783 211.333H85.9117V210.933C85.9117 210.347 85.7517 209.893 85.4317 209.573C85.1206 209.244 84.6806 209.08 84.1117 209.08C83.6406 209.08 83.2494 209.191 82.9383 209.413C82.6361 209.627 82.4361 209.933 82.3383 210.333H80.8717C81.005 209.56 81.365 208.951 81.9517 208.507C82.5383 208.062 83.2672 207.84 84.1383 207.84C85.125 207.84 85.8939 208.107 86.445 208.64C87.005 209.173 87.285 209.924 87.285 210.893V216H85.925V214.613H85.8717C85.6672 215.084 85.3428 215.458 84.8983 215.733C84.4539 216.009 83.9561 216.147 83.405 216.147ZM83.6983 214.947C84.1161 214.947 84.4894 214.849 84.8183 214.653C85.1561 214.458 85.4228 214.196 85.6183 213.867C85.8139 213.529 85.9117 213.156 85.9117 212.747V212.427H83.6717C83.1561 212.427 82.7606 212.538 82.485 212.76C82.2183 212.973 82.085 213.276 82.085 213.667C82.085 214.058 82.2317 214.369 82.525 214.6C82.8183 214.831 83.2094 214.947 83.6983 214.947ZM92.3975 216.16C91.4375 216.16 90.6553 215.924 90.0508 215.453C89.4553 214.973 89.1308 214.333 89.0775 213.533H90.4908C90.5531 213.996 90.7531 214.351 91.0908 214.6C91.4286 214.84 91.8819 214.96 92.4508 214.96C92.9753 214.96 93.3753 214.858 93.6508 214.653C93.9264 214.449 94.0642 214.16 94.0642 213.787C94.0642 213.2 93.6597 212.822 92.8508 212.653L91.5308 212.36C90.0908 212.058 89.3708 211.347 89.3708 210.227C89.3708 209.516 89.6375 208.942 90.1708 208.507C90.7042 208.062 91.4019 207.84 92.2642 207.84C93.1175 207.84 93.8197 208.067 94.3708 208.52C94.9308 208.964 95.2464 209.569 95.3175 210.333H93.9308C93.8419 209.916 93.6464 209.596 93.3442 209.373C93.0508 209.142 92.6686 209.027 92.1975 209.027C91.7442 209.027 91.3842 209.124 91.1175 209.32C90.8508 209.516 90.7175 209.782 90.7175 210.12C90.7175 210.387 90.8108 210.604 90.9975 210.773C91.1842 210.933 91.4819 211.058 91.8908 211.147L93.2242 211.427C93.9531 211.587 94.4953 211.853 94.8508 212.227C95.2153 212.591 95.3975 213.071 95.3975 213.667C95.3975 214.431 95.1308 215.04 94.5975 215.493C94.0642 215.938 93.3308 216.16 92.3975 216.16Z" fill="#1D2528"/>
<path d="M108.213 216V204.8H109.653V209.173H109.707C109.938 208.764 110.262 208.44 110.68 208.2C111.098 207.96 111.587 207.84 112.147 207.84C112.724 207.84 113.236 207.978 113.68 208.253C114.124 208.529 114.471 208.911 114.72 209.4C114.969 209.889 115.093 210.458 115.093 211.107V216H113.653V211.32C113.653 210.627 113.476 210.089 113.12 209.707C112.773 209.324 112.284 209.133 111.653 209.133C111.022 209.133 110.529 209.324 110.173 209.707C109.827 210.089 109.653 210.627 109.653 211.32V216H108.213ZM120.21 216.16C119.25 216.16 118.468 215.924 117.863 215.453C117.268 214.973 116.943 214.333 116.89 213.533H118.303C118.366 213.996 118.566 214.351 118.903 214.6C119.241 214.84 119.694 214.96 120.263 214.96C120.788 214.96 121.188 214.858 121.463 214.653C121.739 214.449 121.877 214.16 121.877 213.787C121.877 213.2 121.472 212.822 120.663 212.653L119.343 212.36C117.903 212.058 117.183 211.347 117.183 210.227C117.183 209.516 117.45 208.942 117.983 208.507C118.517 208.062 119.214 207.84 120.077 207.84C120.93 207.84 121.632 208.067 122.183 208.52C122.743 208.964 123.059 209.569 123.13 210.333H121.743C121.654 209.916 121.459 209.596 121.157 209.373C120.863 209.142 120.481 209.027 120.01 209.027C119.557 209.027 119.197 209.124 118.93 209.32C118.663 209.516 118.53 209.782 118.53 210.12C118.53 210.387 118.623 210.604 118.81 210.773C118.997 210.933 119.294 211.058 119.703 211.147L121.037 211.427C121.766 211.587 122.308 211.853 122.663 212.227C123.028 212.591 123.21 213.071 123.21 213.667C123.21 214.431 122.943 215.04 122.41 215.493C121.877 215.938 121.143 216.16 120.21 216.16ZM131.908 218.12H123.748V217.08H131.908V218.12ZM133.041 219.2V208H134.468V209.307H134.521C134.984 208.329 135.801 207.84 136.975 207.84C137.641 207.84 138.224 208.013 138.721 208.36C139.219 208.707 139.606 209.191 139.881 209.813C140.157 210.436 140.295 211.164 140.295 212C140.295 212.827 140.157 213.556 139.881 214.187C139.606 214.809 139.219 215.293 138.721 215.64C138.224 215.987 137.641 216.16 136.975 216.16C135.801 216.16 134.988 215.676 134.535 214.707H134.481V219.2H133.041ZM136.588 214.88C137.281 214.88 137.833 214.618 138.241 214.093C138.65 213.569 138.855 212.871 138.855 212C138.855 211.129 138.65 210.431 138.241 209.907C137.833 209.382 137.281 209.12 136.588 209.12C135.921 209.12 135.401 209.333 135.028 209.76C134.664 210.178 134.481 210.729 134.481 211.413V212.587C134.481 213.271 134.664 213.822 135.028 214.24C135.401 214.649 135.921 214.862 136.588 214.88ZM145.582 216.16C144.863 216.16 144.218 215.991 143.649 215.653C143.08 215.307 142.631 214.822 142.303 214.2C141.982 213.569 141.822 212.827 141.822 211.973C141.822 211.129 141.982 210.4 142.303 209.787C142.623 209.164 143.058 208.684 143.609 208.347C144.16 208.009 144.791 207.84 145.503 207.84C146.169 207.84 146.76 207.991 147.276 208.293C147.8 208.596 148.214 209.031 148.516 209.6C148.818 210.169 148.969 210.84 148.969 211.613V212.253H143.209C143.263 213.062 143.503 213.707 143.929 214.187C144.356 214.667 144.902 214.907 145.569 214.907C146.049 214.907 146.458 214.787 146.796 214.547C147.134 214.307 147.36 213.978 147.476 213.56H148.943C148.836 214.102 148.623 214.569 148.303 214.96C147.983 215.342 147.591 215.64 147.129 215.853C146.667 216.058 146.151 216.16 145.582 216.16ZM143.276 211.16H147.569C147.507 210.502 147.289 209.991 146.916 209.627C146.543 209.262 146.067 209.08 145.489 209.08C144.92 209.08 144.44 209.267 144.049 209.64C143.658 210.004 143.4 210.511 143.276 211.16ZM152.348 216.16C152.072 216.16 151.832 216.062 151.628 215.867C151.432 215.662 151.334 215.422 151.334 215.147C151.334 214.871 151.432 214.636 151.628 214.44C151.832 214.244 152.072 214.147 152.348 214.147C152.632 214.147 152.872 214.244 153.068 214.44C153.263 214.636 153.361 214.871 153.361 215.147C153.361 215.422 153.263 215.662 153.068 215.867C152.872 216.062 152.632 216.16 152.348 216.16ZM157.734 216.16C157.459 216.16 157.219 216.062 157.014 215.867C156.819 215.662 156.721 215.422 156.721 215.147C156.721 214.871 156.819 214.636 157.014 214.44C157.219 214.244 157.459 214.147 157.734 214.147C158.019 214.147 158.259 214.244 158.454 214.44C158.65 214.636 158.748 214.871 158.748 215.147C158.748 215.422 158.65 215.662 158.454 215.867C158.259 216.062 158.019 216.16 157.734 216.16ZM163.121 216.16C162.845 216.16 162.605 216.062 162.401 215.867C162.205 215.662 162.108 215.422 162.108 215.147C162.108 214.871 162.205 214.636 162.401 214.44C162.605 214.244 162.845 214.147 163.121 214.147C163.405 214.147 163.645 214.244 163.841 214.44C164.037 214.636 164.134 214.871 164.134 215.147C164.134 215.422 164.037 215.662 163.841 215.867C163.645 216.062 163.405 216.16 163.121 216.16Z" fill="#495155" fill-opacity="0.933333"/>
<path d="M21.0533 272.16C20.2 272.16 19.4533 272.018 18.8133 271.733C18.1733 271.44 17.6667 271.031 17.2933 270.507C16.9289 269.973 16.7244 269.356 16.68 268.653H18.5333C18.6222 269.293 18.8933 269.782 19.3467 270.12C19.8 270.458 20.3911 270.627 21.12 270.627C21.7956 270.627 22.3156 270.489 22.68 270.213C23.0533 269.929 23.24 269.533 23.24 269.027C23.24 268.636 23.1111 268.311 22.8533 268.053C22.6044 267.787 22.2044 267.591 21.6533 267.467L19.9067 267.08C18.9733 266.867 18.2667 266.516 17.7867 266.027C17.3156 265.538 17.08 264.916 17.08 264.16C17.08 263.538 17.2356 262.996 17.5467 262.533C17.8578 262.062 18.2933 261.698 18.8533 261.44C19.4222 261.173 20.0889 261.04 20.8533 261.04C21.6356 261.04 22.3156 261.178 22.8933 261.453C23.48 261.72 23.9467 262.102 24.2933 262.6C24.6489 263.098 24.8578 263.68 24.92 264.347H23.0533C22.9467 263.76 22.6933 263.311 22.2933 263C21.8933 262.689 21.3822 262.533 20.76 262.533C20.1733 262.533 19.7067 262.667 19.36 262.933C19.0133 263.191 18.84 263.547 18.84 264C18.84 264.347 18.96 264.644 19.2 264.893C19.4489 265.142 19.8356 265.324 20.36 265.44L22.2 265.853C23.1333 266.067 23.8311 266.422 24.2933 266.92C24.7644 267.418 25 268.076 25 268.893C25 269.889 24.6533 270.684 23.96 271.28C23.2667 271.867 22.2978 272.16 21.0533 272.16ZM28.9721 272.147C28.1721 272.147 27.5232 271.92 27.0254 271.467C26.5276 271.013 26.2788 270.422 26.2788 269.693C26.2788 268.929 26.5321 268.338 27.0388 267.92C27.5543 267.493 28.2788 267.28 29.2121 267.28H31.3588V266.907C31.3588 266.4 31.2165 266.009 30.9321 265.733C30.6565 265.449 30.2699 265.307 29.7721 265.307C29.3543 265.307 29.0076 265.404 28.7321 265.6C28.4565 265.787 28.2788 266.058 28.1988 266.413H26.4121C26.5543 265.604 26.9232 264.973 27.5188 264.52C28.1232 264.067 28.8788 263.84 29.7854 263.84C30.8076 263.84 31.6032 264.111 32.1721 264.653C32.7499 265.187 33.0388 265.947 33.0388 266.933V272H31.3988V270.733H31.3454C31.1321 271.178 30.8165 271.524 30.3988 271.773C29.981 272.022 29.5054 272.147 28.9721 272.147ZM29.3454 270.733C29.7276 270.733 30.0699 270.649 30.3721 270.48C30.6743 270.302 30.9143 270.067 31.0921 269.773C31.2699 269.471 31.3588 269.133 31.3588 268.76V268.533H29.3188C28.8743 268.533 28.5321 268.631 28.2921 268.827C28.061 269.013 27.9454 269.276 27.9454 269.613C27.9454 269.96 28.0699 270.236 28.3188 270.44C28.5765 270.636 28.9188 270.733 29.3454 270.733ZM36.8898 272L33.7831 264H35.6098L37.8365 270.013H37.8898L40.0765 264H41.8498L38.7431 272H36.8898ZM46.1785 272.16C45.4319 272.16 44.7697 271.991 44.1919 271.653C43.623 271.307 43.1741 270.822 42.8452 270.2C42.5163 269.569 42.3519 268.827 42.3519 267.973C42.3519 267.129 42.5119 266.4 42.8319 265.787C43.1519 265.164 43.5919 264.684 44.1519 264.347C44.7208 264.009 45.3697 263.84 46.0985 263.84C46.7741 263.84 47.3785 263.996 47.9119 264.307C48.4541 264.609 48.8808 265.049 49.1919 265.627C49.503 266.204 49.6585 266.898 49.6585 267.707V268.4H44.0585C44.1208 269.111 44.3385 269.671 44.7119 270.08C45.0941 270.48 45.5785 270.68 46.1652 270.68C46.5919 270.68 46.9519 270.578 47.2452 270.373C47.5474 270.16 47.7474 269.871 47.8452 269.507H49.6452C49.5385 270.058 49.3208 270.533 48.9919 270.933C48.663 271.324 48.2585 271.627 47.7785 271.84C47.2985 272.053 46.7652 272.16 46.1785 272.16ZM44.1119 267.133H47.9519C47.8808 266.547 47.6763 266.098 47.3385 265.787C47.0097 265.467 46.5963 265.307 46.0985 265.307C45.5919 265.307 45.1608 265.467 44.8052 265.787C44.4585 266.107 44.2274 266.556 44.1119 267.133ZM54.3438 272.16C53.6771 272.16 53.0949 271.987 52.5971 271.64C52.0993 271.293 51.7126 270.809 51.4371 270.187C51.1615 269.556 51.0238 268.827 51.0238 268C51.0238 267.164 51.1615 266.436 51.4371 265.813C51.7126 265.191 52.0993 264.707 52.5971 264.36C53.0949 264.013 53.6771 263.84 54.3438 263.84C55.4549 263.84 56.2326 264.293 56.6771 265.2H56.7304V260.8H58.4904V272H56.7704V270.76H56.7171C56.2549 271.693 55.4638 272.16 54.3438 272.16ZM54.8104 270.6C55.4149 270.6 55.886 270.409 56.2238 270.027C56.5615 269.636 56.7304 269.12 56.7304 268.48V267.52C56.7304 266.88 56.5615 266.369 56.2238 265.987C55.886 265.596 55.4149 265.4 54.8104 265.4C54.1971 265.4 53.7038 265.636 53.3304 266.107C52.966 266.578 52.7838 267.209 52.7838 268C52.7838 268.791 52.966 269.422 53.3304 269.893C53.7038 270.364 54.1971 270.6 54.8104 270.6ZM65.0977 272V265.413H63.7244V264H65.1244V262.333C65.1244 261.818 65.2577 261.436 65.5244 261.187C65.791 260.929 66.1688 260.8 66.6577 260.8H68.7244V262.213H66.8444V264H68.5644V265.413H66.8577V272H65.0977ZM69.951 272V264H71.711V272H69.951ZM70.831 263.04C70.5466 263.04 70.3022 262.942 70.0977 262.747C69.8933 262.542 69.791 262.293 69.791 262C69.791 261.716 69.8888 261.471 70.0844 261.267C70.2888 261.062 70.5377 260.96 70.831 260.96C71.1155 260.96 71.3599 261.062 71.5644 261.267C71.7688 261.462 71.871 261.707 71.871 262C71.871 262.284 71.7688 262.529 71.5644 262.733C71.3688 262.938 71.1244 263.04 70.831 263.04ZM74.006 272V260.8H75.766V272H74.006ZM79.9596 272C79.4885 272 79.1196 271.876 78.8529 271.627C78.5863 271.378 78.4529 271 78.4529 270.493V265.413H77.1463V264H78.4663V261.6H80.1996V264H81.9862V265.413H80.2129V270.587H82.1596V272H79.9596ZM87.0067 272.16C86.26 272.16 85.5978 271.991 85.02 271.653C84.4511 271.307 84.0022 270.822 83.6733 270.2C83.3444 269.569 83.18 268.827 83.18 267.973C83.18 267.129 83.34 266.4 83.66 265.787C83.98 265.164 84.42 264.684 84.98 264.347C85.5489 264.009 86.1978 263.84 86.9267 263.84C87.6022 263.84 88.2067 263.996 88.74 264.307C89.2822 264.609 89.7089 265.049 90.02 265.627C90.3311 266.204 90.4867 266.898 90.4867 267.707V268.4H84.8867C84.9489 269.111 85.1667 269.671 85.54 270.08C85.9222 270.48 86.4067 270.68 86.9933 270.68C87.42 270.68 87.78 270.578 88.0733 270.373C88.3756 270.16 88.5756 269.871 88.6733 269.507H90.4733C90.3667 270.058 90.1489 270.533 89.82 270.933C89.4911 271.324 89.0867 271.627 88.6067 271.84C88.1267 272.053 87.5933 272.16 87.0067 272.16ZM84.94 267.133H88.78C88.7089 266.547 88.5044 266.098 88.1667 265.787C87.8378 265.467 87.4244 265.307 86.9267 265.307C86.42 265.307 85.9889 265.467 85.6333 265.787C85.2867 266.107 85.0556 266.556 84.94 267.133ZM92.4252 272V264H94.1185V265.48H94.1719C94.3497 265.009 94.6297 264.631 95.0119 264.347C95.3941 264.062 95.8563 263.92 96.3985 263.92H97.0252V265.48H96.3185C95.6074 265.48 95.0741 265.698 94.7185 266.133C94.363 266.569 94.1852 267.151 94.1852 267.88V272H92.4252ZM101.21 272.16C100.223 272.16 99.4185 271.916 98.7962 271.427C98.1829 270.938 97.8496 270.28 97.7962 269.453H99.5029C99.5651 269.871 99.7474 270.191 100.05 270.413C100.361 270.636 100.77 270.747 101.276 270.747C101.73 270.747 102.072 270.662 102.303 270.493C102.543 270.316 102.663 270.062 102.663 269.733C102.663 269.244 102.325 268.929 101.65 268.787L100.25 268.48C98.7829 268.169 98.0496 267.444 98.0496 266.307C98.0496 265.569 98.3251 264.973 98.8763 264.52C99.4362 264.067 100.165 263.84 101.063 263.84C101.961 263.84 102.698 264.076 103.276 264.547C103.854 265.009 104.17 265.631 104.223 266.413H102.53C102.45 266.031 102.276 265.738 102.01 265.533C101.743 265.32 101.396 265.213 100.97 265.213C100.587 265.213 100.281 265.298 100.05 265.467C99.8185 265.627 99.7029 265.853 99.7029 266.147C99.7029 266.378 99.7785 266.564 99.9296 266.707C100.09 266.84 100.334 266.942 100.663 267.013L102.103 267.32C102.832 267.48 103.378 267.747 103.743 268.12C104.116 268.484 104.303 268.978 104.303 269.6C104.303 270.382 104.027 271.004 103.476 271.467C102.925 271.929 102.17 272.16 101.21 272.16Z" fill="#1D2528"/>
<mask id="mask1_6_404" style="mask-type:alpha" maskUnits="userSpaceOnUse" x="156" y="256" width="20" height="20">
<rect x="156" y="256" width="20" height="20" fill="#D9D9D9"/>
</mask>
<g mask="url(#mask1_6_404)">
<path d="M165.25 266.75H161V265.25H165.25V261H166.75V265.25H171V266.75H166.75V271H165.25V266.75Z" fill="#1C1B1F"/>
</g>
<path d="M28.2 312L24.16 301.2H25.8L29.12 310.4H29.1733L32.4667 301.2H34.0533L30.0133 312H28.2ZM35.4721 312V304H36.9121V312H35.4721ZM36.1921 302.907C35.9432 302.907 35.7299 302.818 35.5521 302.64C35.3743 302.462 35.2854 302.249 35.2854 302C35.2854 301.751 35.3743 301.538 35.5521 301.36C35.7299 301.182 35.9432 301.093 36.1921 301.093C36.441 301.093 36.6543 301.182 36.8321 301.36C37.0099 301.538 37.0988 301.751 37.0988 302C37.0988 302.249 37.0099 302.462 36.8321 302.64C36.6543 302.818 36.441 302.907 36.1921 302.907ZM42.6919 312.16C41.9719 312.16 41.3274 311.991 40.7585 311.653C40.1897 311.307 39.7408 310.822 39.4119 310.2C39.0919 309.569 38.9319 308.827 38.9319 307.973C38.9319 307.129 39.0919 306.4 39.4119 305.787C39.7319 305.164 40.1674 304.684 40.7185 304.347C41.2697 304.009 41.9008 303.84 42.6119 303.84C43.2785 303.84 43.8697 303.991 44.3852 304.293C44.9097 304.596 45.323 305.031 45.6252 305.6C45.9274 306.169 46.0785 306.84 46.0785 307.613V308.253H40.3185C40.3719 309.062 40.6119 309.707 41.0385 310.187C41.4652 310.667 42.0119 310.907 42.6785 310.907C43.1585 310.907 43.5674 310.787 43.9052 310.547C44.243 310.307 44.4697 309.978 44.5852 309.56H46.0519C45.9452 310.102 45.7319 310.569 45.4119 310.96C45.0919 311.342 44.7008 311.64 44.2385 311.853C43.7763 312.058 43.2608 312.16 42.6919 312.16ZM40.3852 307.16H44.6785C44.6163 306.502 44.3985 305.991 44.0252 305.627C43.6519 305.262 43.1763 305.08 42.5985 305.08C42.0297 305.08 41.5497 305.267 41.1585 305.64C40.7674 306.004 40.5097 306.511 40.3852 307.16ZM49.1115 312L46.8181 304H48.2848L49.9648 310.227H50.0181L51.9781 304H53.4715L55.4315 310.227H55.4848L57.1648 304H58.6048L56.3115 312H54.7115L52.7381 305.76H52.6848L50.7115 312H49.1115ZM64.3435 312V310.76H66.9302V302.867L64.2102 304.947H64.1569V303.44L67.1169 301.2H68.3702V310.76H70.5969V312H64.3435Z" fill="#1D2528"/>
<path d="M28.9867 344.16C28.1511 344.16 27.4178 344.018 26.7867 343.733C26.1556 343.44 25.6578 343.04 25.2933 342.533C24.9378 342.018 24.7378 341.418 24.6933 340.733H26.24C26.32 341.427 26.6044 341.956 27.0933 342.32C27.5911 342.684 28.24 342.867 29.04 342.867C29.7956 342.867 30.3778 342.711 30.7867 342.4C31.1956 342.08 31.4 341.636 31.4 341.067C31.4 340.613 31.2533 340.24 30.96 339.947C30.6756 339.644 30.2267 339.431 29.6133 339.307L27.9067 338.92C27.0089 338.724 26.3244 338.387 25.8533 337.907C25.3822 337.427 25.1467 336.818 25.1467 336.08C25.1467 335.484 25.2933 334.96 25.5867 334.507C25.8889 334.044 26.3111 333.684 26.8533 333.427C27.4044 333.169 28.0489 333.04 28.7867 333.04C29.5422 333.04 30.2044 333.178 30.7733 333.453C31.3422 333.72 31.7956 334.098 32.1333 334.587C32.48 335.067 32.6889 335.636 32.76 336.293H31.2133C31.0978 335.644 30.8222 335.156 30.3867 334.827C29.9511 334.489 29.3911 334.32 28.7067 334.32C28.0667 334.32 27.5511 334.467 27.16 334.76C26.7778 335.053 26.5867 335.453 26.5867 335.96C26.5867 336.36 26.72 336.702 26.9867 336.987C27.2622 337.262 27.7067 337.467 28.32 337.6L30.0933 338C31.0089 338.204 31.6933 338.551 32.1467 339.04C32.6089 339.529 32.84 340.164 32.84 340.947C32.84 341.924 32.4978 342.707 31.8133 343.293C31.1378 343.871 30.1956 344.16 28.9867 344.16ZM37.7362 344.147C37.1585 344.147 36.6474 344.013 36.2029 343.747C35.7674 343.48 35.4251 343.107 35.1762 342.627C34.9363 342.147 34.8163 341.596 34.8163 340.973V336H36.2563V340.653C36.2563 341.338 36.4251 341.876 36.7629 342.267C37.1007 342.649 37.5718 342.84 38.1762 342.84C38.8074 342.84 39.3096 342.64 39.6829 342.24C40.0651 341.831 40.2563 341.298 40.2563 340.64V336H41.6962V344H40.2696V342.613H40.2162C39.994 343.111 39.6696 343.493 39.2429 343.76C38.8163 344.018 38.314 344.147 37.7362 344.147ZM44.1196 347.2V336H45.5463V337.307H45.5996C46.0618 336.329 46.8796 335.84 48.0529 335.84C48.7196 335.84 49.3018 336.013 49.7996 336.36C50.2974 336.707 50.684 337.191 50.9596 337.813C51.2351 338.436 51.3729 339.164 51.3729 340C51.3729 340.827 51.2351 341.556 50.9596 342.187C50.684 342.809 50.2974 343.293 49.7996 343.64C49.3018 343.987 48.7196 344.16 48.0529 344.16C46.8796 344.16 46.0663 343.676 45.6129 342.707H45.5596V347.2H44.1196ZM47.6663 342.88C48.3596 342.88 48.9107 342.618 49.3196 342.093C49.7285 341.569 49.9329 340.871 49.9329 340C49.9329 339.129 49.7285 338.431 49.3196 337.907C48.9107 337.382 48.3596 337.12 47.6663 337.12C46.9996 337.12 46.4796 337.333 46.1063 337.76C45.7418 338.178 45.5596 338.729 45.5596 339.413V340.587C45.5596 341.271 45.7418 341.822 46.1063 342.24C46.4796 342.649 46.9996 342.862 47.6663 342.88ZM53.354 347.2V336H54.7806V337.307H54.834C55.2962 336.329 56.114 335.84 57.2873 335.84C57.954 335.84 58.5362 336.013 59.034 336.36C59.5317 336.707 59.9184 337.191 60.194 337.813C60.4695 338.436 60.6073 339.164 60.6073 340C60.6073 340.827 60.4695 341.556 60.194 342.187C59.9184 342.809 59.5317 343.293 59.034 343.64C58.5362 343.987 57.954 344.16 57.2873 344.16C56.114 344.16 55.3006 343.676 54.8473 342.707H54.794V347.2H53.354ZM56.9006 342.88C57.594 342.88 58.1451 342.618 58.554 342.093C58.9628 341.569 59.1673 340.871 59.1673 340C59.1673 339.129 58.9628 338.431 58.554 337.907C58.1451 337.382 57.594 337.12 56.9006 337.12C56.234 337.12 55.714 337.333 55.3406 337.76C54.9762 338.178 54.794 338.729 54.794 339.413V340.587C54.794 341.271 54.9762 341.822 55.3406 342.24C55.714 342.649 56.234 342.862 56.9006 342.88ZM65.9083 344.16C65.1883 344.16 64.5439 343.991 63.975 343.653C63.4061 343.307 62.9572 342.822 62.6283 342.2C62.2994 341.578 62.135 340.844 62.135 340C62.135 339.147 62.2994 338.409 62.6283 337.787C62.9572 337.164 63.4061 336.684 63.975 336.347C64.5439 336.009 65.1883 335.84 65.9083 335.84C66.6461 335.84 67.2994 336.009 67.8683 336.347C68.4372 336.684 68.8817 337.164 69.2017 337.787C69.5217 338.409 69.6817 339.147 69.6817 340C69.6817 340.844 69.5172 341.582 69.1883 342.213C68.8683 342.836 68.4239 343.316 67.855 343.653C67.2861 343.991 66.6372 344.16 65.9083 344.16ZM65.9083 342.853C66.6194 342.853 67.1839 342.596 67.6017 342.08C68.0283 341.556 68.2417 340.862 68.2417 340C68.2417 339.129 68.0283 338.436 67.6017 337.92C67.1839 337.404 66.6194 337.147 65.9083 337.147C65.2061 337.147 64.6417 337.404 64.215 337.92C63.7883 338.436 63.575 339.129 63.575 340C63.575 340.862 63.7883 341.556 64.215 342.08C64.6417 342.596 65.2061 342.853 65.9083 342.853ZM71.7975 344V336H73.1708V337.6H73.2242C73.4019 337.102 73.6908 336.702 74.0908 336.4C74.4997 336.089 74.9975 335.933 75.5842 335.933H76.1708V337.213H75.5042C74.7664 337.213 74.2019 337.449 73.8108 337.92C73.4286 338.391 73.2375 339.027 73.2375 339.827V344H71.7975ZM79.5317 344C79.1228 344 78.8028 343.893 78.5717 343.68C78.3406 343.458 78.225 343.129 78.225 342.693V337.147H76.865V336H78.2383V333.6H79.6517V336H81.5583V337.147H79.665V342.853H81.745V344H79.5317ZM91.0023 344.16C90.1667 344.16 89.4334 344.018 88.8023 343.733C88.1712 343.44 87.6734 343.04 87.309 342.533C86.9534 342.018 86.7534 341.418 86.709 340.733H88.2556C88.3356 341.427 88.6201 341.956 89.109 342.32C89.6067 342.684 90.2556 342.867 91.0556 342.867C91.8112 342.867 92.3934 342.711 92.8023 342.4C93.2112 342.08 93.4156 341.636 93.4156 341.067C93.4156 340.613 93.269 340.24 92.9756 339.947C92.6912 339.644 92.2423 339.431 91.629 339.307L89.9223 338.92C89.0245 338.724 88.3401 338.387 87.869 337.907C87.3978 337.427 87.1623 336.818 87.1623 336.08C87.1623 335.484 87.309 334.96 87.6023 334.507C87.9045 334.044 88.3267 333.684 88.869 333.427C89.4201 333.169 90.0645 333.04 90.8023 333.04C91.5578 333.04 92.2201 333.178 92.789 333.453C93.3578 333.72 93.8112 334.098 94.149 334.587C94.4956 335.067 94.7045 335.636 94.7756 336.293H93.229C93.1134 335.644 92.8378 335.156 92.4023 334.827C91.9667 334.489 91.4067 334.32 90.7223 334.32C90.0823 334.32 89.5667 334.467 89.1756 334.76C88.7934 335.053 88.6023 335.453 88.6023 335.96C88.6023 336.36 88.7356 336.702 89.0023 336.987C89.2778 337.262 89.7223 337.467 90.3356 337.6L92.109 338C93.0245 338.204 93.709 338.551 94.1623 339.04C94.6245 339.529 94.8556 340.164 94.8556 340.947C94.8556 341.924 94.5134 342.707 93.829 343.293C93.1534 343.871 92.2112 344.16 91.0023 344.16ZM98.5785 344C98.1697 344 97.8497 343.893 97.6185 343.68C97.3874 343.458 97.2719 343.129 97.2719 342.693V337.147H95.9119V336H97.2852V333.6H98.6985V336H100.605V337.147H98.7119V342.853H100.792V344H98.5785ZM104.389 344.147C103.598 344.147 102.954 343.924 102.456 343.48C101.967 343.027 101.723 342.444 101.723 341.733C101.723 340.978 101.967 340.391 102.456 339.973C102.954 339.547 103.656 339.333 104.563 339.333H106.896V338.933C106.896 338.347 106.736 337.893 106.416 337.573C106.105 337.244 105.665 337.08 105.096 337.08C104.625 337.08 104.234 337.191 103.923 337.413C103.62 337.627 103.42 337.933 103.323 338.333H101.856C101.989 337.56 102.349 336.951 102.936 336.507C103.523 336.062 104.252 335.84 105.123 335.84C106.109 335.84 106.878 336.107 107.429 336.64C107.989 337.173 108.269 337.924 108.269 338.893V344H106.909V342.613H106.856C106.652 343.084 106.327 343.458 105.883 343.733C105.438 344.009 104.94 344.147 104.389 344.147ZM104.683 342.947C105.1 342.947 105.474 342.849 105.803 342.653C106.14 342.458 106.407 342.196 106.603 341.867C106.798 341.529 106.896 341.156 106.896 340.747V340.427H104.656C104.14 340.427 103.745 340.538 103.469 340.76C103.203 340.973 103.069 341.276 103.069 341.667C103.069 342.058 103.216 342.369 103.509 342.6C103.803 342.831 104.194 342.947 104.683 342.947ZM111.129 344V337.147H109.662V336H111.142V334.147C111.142 333.693 111.257 333.356 111.489 333.133C111.729 332.911 112.062 332.8 112.489 332.8H114.515V333.947H112.555V336H116.315V334.147C116.315 333.693 116.431 333.356 116.662 333.133C116.902 332.911 117.235 332.8 117.662 332.8H119.689V333.947H117.729V336H119.529V337.147H117.742V344H116.302V337.147H112.569V344H111.129Z" fill="#1D2528"/>
<path d="M25.4533 376V365.2H26.9333V369.747H32.4533V365.2H33.9333V376H32.4533V371.053H26.9333V376H25.4533ZM36.644 376V368H38.084V376H36.644ZM37.364 366.907C37.1151 366.907 36.9017 366.818 36.724 366.64C36.5462 366.462 36.4573 366.249 36.4573 366C36.4573 365.751 36.5462 365.538 36.724 365.36C36.9017 365.182 37.1151 365.093 37.364 365.093C37.6128 365.093 37.8262 365.182 38.004 365.36C38.1817 365.538 38.2706 365.751 38.2706 366C38.2706 366.249 38.1817 366.462 38.004 366.64C37.8262 366.818 37.6128 366.907 37.364 366.907ZM43.7038 379.36C42.7171 379.36 41.8949 379.12 41.2371 378.64C40.5793 378.169 40.1971 377.538 40.0904 376.747H41.6237C41.7126 377.173 41.9393 377.507 42.3038 377.747C42.6682 377.987 43.126 378.107 43.6771 378.107C44.3882 378.107 44.9438 377.902 45.3438 377.493C45.7526 377.084 45.9571 376.529 45.9571 375.827V374.533H45.9037C45.7082 375.004 45.4015 375.369 44.9838 375.627C44.5749 375.876 44.0904 376 43.5304 376C42.8549 376 42.2593 375.831 41.7438 375.493C41.2371 375.147 40.8415 374.667 40.5571 374.053C40.2726 373.44 40.1304 372.729 40.1304 371.92C40.1304 371.111 40.2726 370.4 40.5571 369.787C40.8415 369.173 41.2371 368.698 41.7438 368.36C42.2593 368.013 42.8549 367.84 43.5304 367.84C44.0904 367.84 44.5749 367.969 44.9838 368.227C45.4015 368.476 45.7082 368.831 45.9037 369.293H45.9571V368H47.3837V375.893C47.3837 376.96 47.0504 377.804 46.3837 378.427C45.726 379.049 44.8326 379.36 43.7038 379.36ZM43.8771 374.693C44.5082 374.693 45.0104 374.489 45.3837 374.08C45.7571 373.671 45.9438 373.129 45.9438 372.453V371.387C45.9438 370.711 45.7526 370.169 45.3704 369.76C44.9971 369.351 44.4993 369.147 43.8771 369.147C43.1749 369.147 42.6149 369.4 42.1971 369.907C41.7793 370.404 41.5704 371.076 41.5704 371.92C41.5704 372.764 41.7793 373.44 42.1971 373.947C42.6149 374.444 43.1749 374.693 43.8771 374.693ZM49.8071 376V364.8H51.2471V369.173H51.3004C51.5315 368.764 51.856 368.44 52.2738 368.2C52.6915 367.96 53.1804 367.84 53.7404 367.84C54.3182 367.84 54.8293 367.978 55.2738 368.253C55.7182 368.529 56.0649 368.911 56.3138 369.4C56.5626 369.889 56.6871 370.458 56.6871 371.107V376H55.2471V371.32C55.2471 370.627 55.0693 370.089 54.7138 369.707C54.3671 369.324 53.8782 369.133 53.2471 369.133C52.616 369.133 52.1226 369.324 51.7671 369.707C51.4204 370.089 51.2471 370.627 51.2471 371.32V376H49.8071ZM66.7835 376.16C65.948 376.16 65.2147 376.018 64.5835 375.733C63.9524 375.44 63.4547 375.04 63.0902 374.533C62.7347 374.018 62.5347 373.418 62.4902 372.733H64.0369C64.1169 373.427 64.4013 373.956 64.8902 374.32C65.388 374.684 66.0369 374.867 66.8369 374.867C67.5924 374.867 68.1747 374.711 68.5835 374.4C68.9924 374.08 69.1969 373.636 69.1969 373.067C69.1969 372.613 69.0502 372.24 68.7569 371.947C68.4724 371.644 68.0235 371.431 67.4102 371.307L65.7035 370.92C64.8058 370.724 64.1213 370.387 63.6502 369.907C63.1791 369.427 62.9435 368.818 62.9435 368.08C62.9435 367.484 63.0902 366.96 63.3835 366.507C63.6858 366.044 64.108 365.684 64.6502 365.427C65.2013 365.169 65.8458 365.04 66.5835 365.04C67.3391 365.04 68.0013 365.178 68.5702 365.453C69.1391 365.72 69.5924 366.098 69.9302 366.587C70.2769 367.067 70.4858 367.636 70.5569 368.293H69.0102C68.8947 367.644 68.6191 367.156 68.1835 366.827C67.748 366.489 67.188 366.32 66.5035 366.32C65.8635 366.32 65.348 366.467 64.9569 366.76C64.5747 367.053 64.3835 367.453 64.3835 367.96C64.3835 368.36 64.5169 368.702 64.7835 368.987C65.0591 369.262 65.5035 369.467 66.1169 369.6L67.8902 370C68.8058 370.204 69.4902 370.551 69.9435 371.04C70.4058 371.529 70.6369 372.164 70.6369 372.947C70.6369 373.924 70.2947 374.707 69.6102 375.293C68.9347 375.871 67.9924 376.16 66.7835 376.16ZM75.9731 376.16C75.2531 376.16 74.6087 375.991 74.0398 375.653C73.4709 375.307 73.022 374.822 72.6931 374.2C72.3731 373.569 72.2131 372.827 72.2131 371.973C72.2131 371.129 72.3731 370.4 72.6931 369.787C73.0131 369.164 73.4487 368.684 73.9998 368.347C74.5509 368.009 75.182 367.84 75.8931 367.84C76.5598 367.84 77.1509 367.991 77.6665 368.293C78.1909 368.596 78.6042 369.031 78.9065 369.6C79.2087 370.169 79.3598 370.84 79.3598 371.613V372.253H73.5998C73.6531 373.062 73.8931 373.707 74.3198 374.187C74.7465 374.667 75.2931 374.907 75.9598 374.907C76.4398 374.907 76.8487 374.787 77.1865 374.547C77.5242 374.307 77.7509 373.978 77.8665 373.56H79.3331C79.2265 374.102 79.0131 374.569 78.6931 374.96C78.3731 375.342 77.982 375.64 77.5198 375.853C77.0576 376.058 76.542 376.16 75.9731 376.16ZM73.6665 371.16H77.9598C77.8976 370.502 77.6798 369.991 77.3065 369.627C76.9331 369.262 76.4576 369.08 75.8798 369.08C75.3109 369.08 74.8309 369.267 74.4398 369.64C74.0487 370.004 73.7909 370.511 73.6665 371.16ZM83.405 376.147C82.6139 376.147 81.9694 375.924 81.4717 375.48C80.9828 375.027 80.7383 374.444 80.7383 373.733C80.7383 372.978 80.9828 372.391 81.4717 371.973C81.9694 371.547 82.6717 371.333 83.5783 371.333H85.9117V370.933C85.9117 370.347 85.7517 369.893 85.4317 369.573C85.1206 369.244 84.6806 369.08 84.1117 369.08C83.6406 369.08 83.2494 369.191 82.9383 369.413C82.6361 369.627 82.4361 369.933 82.3383 370.333H80.8717C81.005 369.56 81.365 368.951 81.9517 368.507C82.5383 368.062 83.2672 367.84 84.1383 367.84C85.125 367.84 85.8939 368.107 86.445 368.64C87.005 369.173 87.285 369.924 87.285 370.893V376H85.925V374.613H85.8717C85.6672 375.084 85.3428 375.458 84.8983 375.733C84.4539 376.009 83.9561 376.147 83.405 376.147ZM83.6983 374.947C84.1161 374.947 84.4894 374.849 84.8183 374.653C85.1561 374.458 85.4228 374.196 85.6183 373.867C85.8139 373.529 85.9117 373.156 85.9117 372.747V372.427H83.6717C83.1561 372.427 82.7606 372.538 82.485 372.76C82.2183 372.973 82.085 373.276 82.085 373.667C82.085 374.058 82.2317 374.369 82.525 374.6C82.8183 374.831 83.2094 374.947 83.6983 374.947ZM92.3975 376.16C91.4375 376.16 90.6553 375.924 90.0508 375.453C89.4553 374.973 89.1308 374.333 89.0775 373.533H90.4908C90.5531 373.996 90.7531 374.351 91.0908 374.6C91.4286 374.84 91.8819 374.96 92.4508 374.96C92.9753 374.96 93.3753 374.858 93.6508 374.653C93.9264 374.449 94.0642 374.16 94.0642 373.787C94.0642 373.2 93.6597 372.822 92.8508 372.653L91.5308 372.36C90.0908 372.058 89.3708 371.347 89.3708 370.227C89.3708 369.516 89.6375 368.942 90.1708 368.507C90.7042 368.062 91.4019 367.84 92.2642 367.84C93.1175 367.84 93.8197 368.067 94.3708 368.52C94.9308 368.964 95.2464 369.569 95.3175 370.333H93.9308C93.8419 369.916 93.6464 369.596 93.3442 369.373C93.0508 369.142 92.6686 369.027 92.1975 369.027C91.7442 369.027 91.3842 369.124 91.1175 369.32C90.8508 369.516 90.7175 369.782 90.7175 370.12C90.7175 370.387 90.8108 370.604 90.9975 370.773C91.1842 370.933 91.4819 371.058 91.8908 371.147L93.2242 371.427C93.9531 371.587 94.4953 371.853 94.8508 372.227C95.2153 372.591 95.3975 373.071 95.3975 373.667C95.3975 374.431 95.1308 375.04 94.5975 375.493C94.0642 375.938 93.3308 376.16 92.3975 376.16Z" fill="#1D2528"/>
<rect x="16" y="400" width="160" height="28" rx="4" fill="#B9E4F2"/>
<path d="M36.3815 420.16C35.5281 420.16 34.7815 420.018 34.1415 419.733C33.5015 419.44 32.9948 419.031 32.6215 418.507C32.257 417.973 32.0526 417.356 32.0081 416.653H33.8615C33.9503 417.293 34.2215 417.782 34.6748 418.12C35.1281 418.458 35.7192 418.627 36.4481 418.627C37.1237 418.627 37.6437 418.489 38.0081 418.213C38.3815 417.929 38.5681 417.533 38.5681 417.027C38.5681 416.636 38.4392 416.311 38.1815 416.053C37.9326 415.787 37.5326 415.591 36.9815 415.467L35.2348 415.08C34.3015 414.867 33.5948 414.516 33.1148 414.027C32.6437 413.538 32.4081 412.916 32.4081 412.16C32.4081 411.538 32.5637 410.996 32.8748 410.533C33.1859 410.062 33.6215 409.698 34.1815 409.44C34.7503 409.173 35.417 409.04 36.1815 409.04C36.9637 409.04 37.6437 409.178 38.2215 409.453C38.8081 409.72 39.2748 410.102 39.6215 410.6C39.977 411.098 40.1859 411.68 40.2481 412.347H38.3815C38.2748 411.76 38.0215 411.311 37.6215 411C37.2215 410.689 36.7103 410.533 36.0881 410.533C35.5015 410.533 35.0348 410.667 34.6881 410.933C34.3415 411.191 34.1681 411.547 34.1681 412C34.1681 412.347 34.2881 412.644 34.5281 412.893C34.777 413.142 35.1637 413.324 35.6881 413.44L37.5281 413.853C38.4615 414.067 39.1592 414.422 39.6215 414.92C40.0926 415.418 40.3281 416.076 40.3281 416.893C40.3281 417.889 39.9815 418.684 39.2881 419.28C38.5948 419.867 37.6259 420.16 36.3815 420.16ZM44.3002 420.147C43.5002 420.147 42.8513 419.92 42.3535 419.467C41.8558 419.013 41.6069 418.422 41.6069 417.693C41.6069 416.929 41.8602 416.338 42.3669 415.92C42.8824 415.493 43.6069 415.28 44.5402 415.28H46.6869V414.907C46.6869 414.4 46.5447 414.009 46.2602 413.733C45.9847 413.449 45.598 413.307 45.1002 413.307C44.6824 413.307 44.3358 413.404 44.0602 413.6C43.7847 413.787 43.6069 414.058 43.5269 414.413H41.7402C41.8824 413.604 42.2513 412.973 42.8469 412.52C43.4513 412.067 44.2069 411.84 45.1135 411.84C46.1358 411.84 46.9313 412.111 47.5002 412.653C48.078 413.187 48.3669 413.947 48.3669 414.933V420H46.7269V418.733H46.6735C46.4602 419.178 46.1447 419.524 45.7269 419.773C45.3091 420.022 44.8335 420.147 44.3002 420.147ZM44.6735 418.733C45.0558 418.733 45.398 418.649 45.7002 418.48C46.0024 418.302 46.2424 418.067 46.4202 417.773C46.598 417.471 46.6869 417.133 46.6869 416.76V416.533H44.6469C44.2024 416.533 43.8602 416.631 43.6202 416.827C43.3891 417.013 43.2735 417.276 43.2735 417.613C43.2735 417.96 43.398 418.236 43.6469 418.44C43.9047 418.636 44.2469 418.733 44.6735 418.733ZM52.2179 420L49.1112 412H50.9379L53.1646 418.013H53.2179L55.4046 412H57.1779L54.0712 420H52.2179ZM61.5067 420.16C60.76 420.16 60.0978 419.991 59.52 419.653C58.9511 419.307 58.5022 418.822 58.1733 418.2C57.8444 417.569 57.68 416.827 57.68 415.973C57.68 415.129 57.84 414.4 58.16 413.787C58.48 413.164 58.92 412.684 59.48 412.347C60.0489 412.009 60.6978 411.84 61.4267 411.84C62.1022 411.84 62.7067 411.996 63.24 412.307C63.7822 412.609 64.2089 413.049 64.52 413.627C64.8311 414.204 64.9867 414.898 64.9867 415.707V416.4H59.3867C59.4489 417.111 59.6667 417.671 60.04 418.08C60.4222 418.48 60.9067 418.68 61.4933 418.68C61.92 418.68 62.28 418.578 62.5733 418.373C62.8756 418.16 63.0756 417.871 63.1733 417.507H64.9733C64.8667 418.058 64.6489 418.533 64.32 418.933C63.9911 419.324 63.5867 419.627 63.1067 419.84C62.6267 420.053 62.0933 420.16 61.5067 420.16ZM59.44 415.133H63.28C63.2089 414.547 63.0044 414.098 62.6667 413.787C62.3378 413.467 61.9244 413.307 61.4267 413.307C60.92 413.307 60.4889 413.467 60.1333 413.787C59.7867 414.107 59.5556 414.556 59.44 415.133ZM74.0269 420.16C73.298 420.16 72.6447 419.991 72.0669 419.653C71.498 419.307 71.0491 418.822 70.7202 418.2C70.3913 417.578 70.2269 416.844 70.2269 416C70.2269 415.147 70.3913 414.409 70.7202 413.787C71.0491 413.164 71.498 412.684 72.0669 412.347C72.6447 412.009 73.298 411.84 74.0269 411.84C74.6135 411.84 75.1513 411.951 75.6402 412.173C76.1291 412.387 76.538 412.707 76.8669 413.133C77.2047 413.56 77.4313 414.093 77.5469 414.733H75.7335C75.6091 414.289 75.3958 413.96 75.0935 413.747C74.7913 413.524 74.4358 413.413 74.0269 413.413C73.4224 413.413 72.9291 413.649 72.5469 414.12C72.1735 414.582 71.9869 415.209 71.9869 416C71.9869 416.782 72.1735 417.409 72.5469 417.88C72.9291 418.351 73.4224 418.587 74.0269 418.587C74.4624 418.587 74.8358 418.471 75.1469 418.24C75.4669 418.009 75.6847 417.64 75.8002 417.133H77.5735C77.4669 417.809 77.2447 418.369 76.9069 418.813C76.578 419.258 76.1647 419.596 75.6669 419.827C75.178 420.049 74.6313 420.16 74.0269 420.16ZM81.8483 420.147C81.2706 420.147 80.7639 420.013 80.3283 419.747C79.8928 419.471 79.5506 419.093 79.3017 418.613C79.0617 418.124 78.9417 417.56 78.9417 416.92V412H80.7017V416.56C80.7017 417.182 80.8528 417.671 81.155 418.027C81.4572 418.373 81.8839 418.547 82.435 418.547C83.0039 418.547 83.4572 418.364 83.795 418C84.1417 417.627 84.315 417.133 84.315 416.52V412H86.075V420H84.355V418.68H84.3017C84.0794 419.151 83.7594 419.516 83.3417 419.773C82.9239 420.022 82.4261 420.147 81.8483 420.147ZM88.4408 420V412H90.1342V413.48H90.1875C90.3653 413.009 90.6453 412.631 91.0275 412.347C91.4097 412.062 91.8719 411.92 92.4142 411.92H93.0408V413.48H92.3342C91.6231 413.48 91.0897 413.698 90.7342 414.133C90.3786 414.569 90.2008 415.151 90.2008 415.88V420H88.4408ZM94.6908 420V412H96.3842V413.48H96.4375C96.6153 413.009 96.8953 412.631 97.2775 412.347C97.6597 412.062 98.1219 411.92 98.6642 411.92H99.2908V413.48H98.5842C97.8731 413.48 97.3397 413.698 96.9842 414.133C96.6286 414.569 96.4508 415.151 96.4508 415.88V420H94.6908ZM103.788 420.16C103.041 420.16 102.379 419.991 101.801 419.653C101.232 419.307 100.783 418.822 100.455 418.2C100.126 417.569 99.9613 416.827 99.9613 415.973C99.9613 415.129 100.121 414.4 100.441 413.787C100.761 413.164 101.201 412.684 101.761 412.347C102.33 412.009 102.979 411.84 103.708 411.84C104.383 411.84 104.988 411.996 105.521 412.307C106.063 412.609 106.49 413.049 106.801 413.627C107.112 414.204 107.268 414.898 107.268 415.707V416.4H101.668C101.73 417.111 101.948 417.671 102.321 418.08C102.703 418.48 103.188 418.68 103.775 418.68C104.201 418.68 104.561 418.578 104.855 418.373C105.157 418.16 105.357 417.871 105.455 417.507H107.255C107.148 418.058 106.93 418.533 106.601 418.933C106.272 419.324 105.868 419.627 105.388 419.84C104.908 420.053 104.375 420.16 103.788 420.16ZM101.721 415.133H105.561C105.49 414.547 105.286 414.098 104.948 413.787C104.619 413.467 104.206 413.307 103.708 413.307C103.201 413.307 102.77 413.467 102.415 413.787C102.068 414.107 101.837 414.556 101.721 415.133ZM109.073 420V412H110.793V413.24H110.846C111.078 412.796 111.398 412.453 111.806 412.213C112.224 411.973 112.709 411.853 113.26 411.853C113.846 411.853 114.358 411.996 114.793 412.28C115.238 412.556 115.584 412.942 115.833 413.44C116.082 413.938 116.206 414.511 116.206 415.16V420H114.446V415.48C114.446 414.849 114.286 414.356 113.966 414C113.655 413.636 113.215 413.453 112.646 413.453C112.078 413.453 111.633 413.636 111.313 414C110.993 414.356 110.833 414.849 110.833 415.48V420H109.073ZM120.319 420C119.848 420 119.479 419.876 119.212 419.627C118.946 419.378 118.812 419 118.812 418.493V413.413H117.506V412H118.826V409.6H120.559V412H122.346V413.413H120.572V418.587H122.519V420H120.319ZM128.348 420V413.413H126.974V412H128.374V410.333C128.374 409.818 128.508 409.436 128.774 409.187C129.041 408.929 129.419 408.8 129.908 408.8H131.974V410.213H130.094V412H131.814V413.413H130.108V420H128.348ZM133.201 420V412H134.961V420H133.201ZM134.081 411.04C133.797 411.04 133.552 410.942 133.348 410.747C133.143 410.542 133.041 410.293 133.041 410C133.041 409.716 133.139 409.471 133.334 409.267C133.539 409.062 133.788 408.96 134.081 408.96C134.365 408.96 134.61 409.062 134.814 409.267C135.019 409.462 135.121 409.707 135.121 410C135.121 410.284 135.019 410.529 134.814 410.733C134.619 410.938 134.374 411.04 134.081 411.04ZM137.256 420V408.8H139.016V420H137.256ZM143.21 420C142.738 420 142.37 419.876 142.103 419.627C141.836 419.378 141.703 419 141.703 418.493V413.413H140.396V412H141.716V409.6H143.45V412H145.236V413.413H143.463V418.587H145.41V420H143.21ZM150.257 420.16C149.51 420.16 148.848 419.991 148.27 419.653C147.701 419.307 147.252 418.822 146.923 418.2C146.594 417.569 146.43 416.827 146.43 415.973C146.43 415.129 146.59 414.4 146.91 413.787C147.23 413.164 147.67 412.684 148.23 412.347C148.799 412.009 149.448 411.84 150.177 411.84C150.852 411.84 151.457 411.996 151.99 412.307C152.532 412.609 152.959 413.049 153.27 413.627C153.581 414.204 153.737 414.898 153.737 415.707V416.4H148.137C148.199 417.111 148.417 417.671 148.79 418.08C149.172 418.48 149.657 418.68 150.243 418.68C150.67 418.68 151.03 418.578 151.323 418.373C151.626 418.16 151.826 417.871 151.923 417.507H153.723C153.617 418.058 153.399 418.533 153.07 418.933C152.741 419.324 152.337 419.627 151.857 419.84C151.377 420.053 150.843 420.16 150.257 420.16ZM148.19 415.133H152.03C151.959 414.547 151.754 414.098 151.417 413.787C151.088 413.467 150.674 413.307 150.177 413.307C149.67 413.307 149.239 413.467 148.883 413.787C148.537 414.107 148.306 414.556 148.19 415.133ZM155.675 420V412H157.369V413.48H157.422C157.6 413.009 157.88 412.631 158.262 412.347C158.644 412.062 159.106 411.92 159.649 411.92H160.275V413.48H159.569C158.857 413.48 158.324 413.698 157.969 414.133C157.613 414.569 157.435 415.151 157.435 415.88V420H155.675Z" fill="#1D2528"/>
</g>
<path d="M191 48V600H193V48H191Z" fill="#BCC8CD" mask="url(#path-1-inside-1_6_404)"/>
</g>
<defs>
<clipPath id="clip0_6_404">
<rect width="1200" height="600" fill="white"/>
</clipPath>
<clipPath id="clip1_6_404">
<path d="M0 48H192V600H0V48Z" fill="white"/>
</clipPath>
</defs>
</svg>
